<?xml version="1.0" encoding="utf-8"?>
<!-- Generator: Adobe Illustrator 25.4.1, SVG Export Plug-In . SVG Version: 6.00 Build 0)  -->
<svg version="1.1" id="Layer_1" xmlns="http://www.w3.org/2000/svg" xmlns:xlink="http://www.w3.org/1999/xlink" x="0px" y="0px"
	 viewBox="0 0 100 100" style="enable-background:new 0 0 100 100;" xml:space="preserve">
<style type="text/css">
	.st0{fill-rule:evenodd;clip-rule:evenodd;fill:#FE9401;}
</style>
<path class="st0" d="M17.93,128.43h28.31h8.02h27.81c-0.84-1.05-0.22-2.22-2.5-2.44c-0.6-0.06-2.94-0.26-3.1-0.97
	c-3.05,0-0.57,1.3-4.08-0.37c-0.06-0.02-3.41,0.37-4.07,0.37c-1.44,0-2.66,0.32-2.18-1.27c0.73-2.43-2.06-0.41-2.22,0.19
	c-0.38,1.41-1.06,0.09-0.71-0.81c0.05-0.12,0.03-3.69-0.15-3.39c-0.37,0.63,0.1,1.53-1,2.99c-1.35,1.79-1.35,1.22-1.35-2.09
	c0-0.89,0.18-1.61,0.09-1.63c-0.19-0.03-1.3,3.58-2.19,3.56c-0.87-0.02-2.08,0.39-3.66,0.39c-0.18,0-0.47-0.01-0.82-0.02
	c-0.31-5.8-1-13.01-1-14.74V76l6.43-9.59c2.2-2.88,8.42-2.2,11.72-1.41c1.3,0.31,2.64,1.91,3.4,2.59l1.88,1.68l0.81,0.37l-2.88,0.19
	l1.97,0.68l-3.15,0.73l3.56,0.52l-4.18,1.43l4.36-0.57c-0.16,0.2-1.72,2.99-1.95,3.38l3.38-2.96l-1.79,3.78l1.8-2.47l-0.48,1.32
	l0.92-0.99l-1.18,4.27l1.9-4.57l0.82,3.42l0.03-4.09l2.71,5.03l-1.96-5.27l3.16,2.97L82,72.92l5.32,2.83l-3.95-3.15l2.3,0.36
	c-0.41-0.1-1.86-0.63-2.38-0.98l4.37,0.06l-3.52-0.58l4.24-1.39l-4.52,0.49l3.94-2.18L83.25,70l3.01-3.22l-3.6,2.3l1.42-4.25
	l-2.18,2.86l0.43-3.12l-1.2,2.91l-0.14-2.37l-0.73,2.54l-0.58-3.89L79.72,67c-0.38-0.44-0.99-1.04-0.99-1.04l0.35,1.31
	c-1.05-0.24-1.99-1.77-2.05-2.43c0.91-0.89,1.83-1.91,2.93-2.32c1.39-0.51,3.01-0.29,4.55-0.43l-1.44,1.45l1.55-0.8l-1.32,2.24
	l2.34-1.82l-1.47,3.21l2.11-2.86c0.04,0.2,0.91,2.59,1.03,2.93l0.04-3.55l1.37,3.05l-0.54-2.36l0.56,0.98l-0.1-1.06l2.03,2.95
	l-1.81-3.53l2.62,1.32l-2.57-2.17l4.71,1.05l-4.44-1.62l3.67-0.29l-3.58-0.46l4.8-1.64l-4.22,0.67l1.53-1.16
	c-0.3,0.19-1.45,0.76-1.97,0.89l2.51-2.54l-2.36,1.77l1.52-3.23l-2.25,2.92l0.85-3.47l-1.55,3.53l-0.33-3.47l-0.58,3.33l-1.88-3.07
	l0.57,2.79l-1.73-1.9l1.16,2.24l-1.58-1.16l1.19,1.77l-2.79-1.71l2.47,2.25c-1.38-0.02-1.43,0.01-3.25-0.06
	c-4.71-0.14-2.77,2.18-12.44,1.8c-2.4-0.1-4.56-0.85-6.94-1c0.4-1.54,1.04-1.73,2.05-2.36c4.24-2.62,9.67,1.68,15.19-2.14
	c3.06-2.11,3.19-1.35,6.96-2.69c1.32-1.06,2.09-1.13,3.74-1.04l-1.48,1.57l1.61-0.9l-1.27,2.32l2.4-1.96l-1.36,3.3l2.07-2.99
	c0.05,0.2,1.16,2.52,1.31,2.86l-0.2-3.55l1.69,2.96l-0.75-2.32l0.67,0.94l-0.19-1.05l2.39,2.81l-2.2-3.4l2.92,1.15l-2.92-2.01
	l5.15,0.75l-4.9-1.34l3.93-0.53l-3.89-0.23l5.06-1.94l-4.51,0.94l1.56-1.26c-0.31,0.21-1.51,0.85-2.06,1.01l2.53-2.7l-2.42,1.91
	l1.42-3.32l-2.22,3.06l0.68-3.52l-1.43,3.62l-0.6-3.44l-0.4,3.36l-2.24-2.95l0.81,2.75l-2-1.79l1.41,2.16l-1.78-1.06l1.4,1.69
	l-3.12-1.53l2.36,1.54c-0.53,0.02-1.31,0.11-1.31,0.11l0.93,0.29l0.8,0.33l-1.75-0.05c-1.98,0.11-2.37,1.16-4.72,1.02
	c-1.65-1.16-0.13-4.01,0.89-4.95l0.95-0.51l-0.47,2l1.07-1.64l-0.19,2.25l0.68-2.2c0.07,0.11,1.18,1.3,1.34,1.47l-0.6-1.58
	l1.38,0.93l-0.9-1.26l0.58,0.44l-0.31-0.6l1.98,1.24l-1.98-1.63l1.98,0.13l-2.15-0.65l3.25-0.53l-3.21,0.13l2.27-1.07l-2.39,0.61
	l2.68-2.14l-2.54,1.43l0.7-1.05c-0.15,0.19-0.74,0.8-1.05,1l1.01-2.11l-1.09,1.62l0.22-2.27l-0.75,2.27l-0.26-2.25l-0.17,2.45
	l-1.2-1.6l0.58,1.75l-1.2-1.04l0.49,1.12l-1.34-0.62l0.87,1.04l-1.24,0.1l1.64,0.6c-6.44,1.16-4.48,11.23-12.5,10.36
	c-0.65-0.07-0.93-0.14-1.13-0.56c-0.36-0.72-0.21-3.08,0.91-4.49c0.64-0.8,2.32-0.91,2.59-1.21c0.97-1.64,0.49-2.86,5.17-5.04
	c3.11-1.45,4.77-0.57,8.53-5.93l0.72-0.45l-0.29,3.07l0.83-2.04l0.6,3.36l0.74-3.72l1.28,4.49l-0.36-4.62
	c0.2,0.18,3.05,1.97,3.45,2.24l-2.94-3.73l3.89,2.09l-2.51-2.03l1.36,0.58l-0.99-1.02l4.44,1.47l-4.72-2.25l3.65-0.68l-4.31-0.25
	l5.44-2.59l-5.66,1.78l3.3-3.17l-3.85,2.32l3.27-5.45l-3.53,3.99l0.5-2.4c-0.13,0.43-0.76,1.92-1.16,2.45l0.3-4.6L91.1,29.2
	l-1.23-4.55l0.27,4.8l-2.08-4.27l1.46,4.87l-3.23-3.35l2.23,3.92l-4.4-1.72L87,31.36l-3.27-0.62l3,1.42l-2.5,0.02l2.63,0.91
	l-4.13,0.4l3.42,0.12c-0.49,0.38-1.15,0.99-1.15,0.99l2.35-0.27c-0.08,0.07-1.42,2.93-3.71,3.99c-6.78,3.13-5.75,2.42-4.57-2.79
	l0.84,1.54l-0.29-1.47l1.47,1.57l-0.91-2.35l2.21,1.88l-1.79-2.35c0.17,0.01,2.24-0.26,2.54-0.29l-2.79-0.74l2.71-0.56l-1.98-0.01
	l0.9-0.28l-0.86-0.12l2.77-1.14l-3.18,0.84l1.62-1.97l-2.28,1.75l1.87-3.79l-2.26,3.45l0.58-3.17l-1.16,2.95l-0.23-4.4l-0.41,3.72
	l-0.58-1.52c0.08,0.29,0.28,1.38,0.26,1.84l-1.45-2.63l0.87,2.35l-2.21-1.93l1.8,2.49l-2.54-1.41l2.44,2.01l-2.81-0.4l2.5,1.15
	l-2.84,0.99l2.32,0.07l-1.88,1.09l2.02-0.54l-1.27,1.11l1.66-0.66l-1.96,2.03l1.98-1.15c-0.23,1.53-1.41,5.33-3.75,8.8
	c-0.82,1.22-2.78,1.38-3.98,2.63c-1.56,1.63-2.44,4.32-3.99,5.44c1.1-2.59,0.95-4.08,1-6.78c0.06-3.8,1.91-10.48,3.4-14
	c0.15-0.36,0.38-0.66,0.58-0.94c0.98-1.45,3.72-5.43,5.29-6.67l0.05,0.11l-0.14,1.27l0.65-0.94l-0.13,2.4l0.73-1.92l0.58,2.89
	l0.63-3.39l1.06,3.01l-0.23-3.26c0.19,0.13,3.16,1.49,2.88,1.19l-2.43-2.58l3.56,1.3l-2.3-1.44l1.25,0.32l-0.91-0.76l4.05,0.67
	L80.3,21.5l3.31-1.12l-3.93,0.39l4.93-3.06l-5.13,2.38l2.97-3.27l-3.47,2.6l2.91-5.29l-3.16,4.03l0.43-2.19
	c-0.11,0.4-0.67,1.81-1.03,2.34l0.22-4.11l-0.69,3.37l-1.18-3.84l0.3,4.2l-1.95-3.48l1.38,4.1l-2.98-2.5l2.07,3.15l-4.02-0.9
	l2.66,1.76l-2.98-0.08l2.75,0.83l-2.27,0.37l2.41,0.43l-1.87,0.82c1.83-0.22,2.02-0.27,2.76-0.45c-3.9,2.4-4.67,5.03-5.3,4.2
	c-0.59-0.78-0.41-4.55-0.66-8.1c-0.24-3.35,0.1-2.27,0.72-3.59l1.01,2.18l-0.26-2.04l1.87,2.28l-1.04-3.29l2.66,1.94L71.71,13
	c0.23,0.03,3.49-0.17,3.1-0.3l-3.35-1.13l3.75-0.52l-2.71-0.19l1.25-0.3l-1.17-0.24l3.9-1.31l-4.43,0.86l2.4-2.54L71.17,9.5
	l2.91-5.02l-3.41,4.51l1.08-4.28L69.9,8.64l0.09-6.03l-0.9,5.04l-0.65-2.13c0.09,0.4,0.26,1.91,0.19,2.55l-1.74-3.73l0.97,3.29
	l-2.84-2.84l2.24,3.56L63.9,6.19l3.15,2.97l-3.8-0.81l3.31,1.81l-3.97,1.09l3.17,0.31l-2.67,1.32l2.82-0.56l-1.83,1.4l2.33-0.75
	l-2.87,2.6l3.21-2.05c-0.19,0.56-1.07,1.65-1.07,1.65l1.23-0.88c-0.89,1.63-0.97,2.6-1.08,5.06c-0.23,4.91,0.4,9.16-1.01,13.95
	c-0.33,1.12-0.62,5.06-1.95,5.2c-5.51-1.85-1.08-7.93,0.8-11.81c0.43-0.88-0.44-3.14-0.54-3.31l1.9,0.96l-1.64-1.87l2.18,0.74
	l-1.95-1.33c0.16-0.05,2.25-1.13,1.96-1.1l-2.54,0.22l2.33-1.43l-1.84,0.66l0.74-0.56l-0.84,0.18l2.19-2l-2.67,1.86l0.84-2.38
	l-1.53,2.4l0.46-4.16l-0.94,3.97l-0.53-3.14l-0.08,3.13l-1.69-4.01l0.87,3.59l-1.05-1.22c0.18,0.25,0.72,1.19,0.86,1.63l-2.23-1.96
	l1.6,1.9l-2.7-1.05l2.52,1.7l-2.84-0.45l2.94,1.05l-2.75,0.57l2.71,0.23l-2.31,1.87l2.18-0.72l-1.38,1.65l1.7-1.19l-0.8,1.46
	l1.32-1.17l-1.14,2.55c0.01-0.01,1.51-2,1.86-2.33c0.76,1.4,0.35,2.6-0.11,3.35c-9.28,15.12,1.04,8.7,0.98,21.72
	c-0.01,1.64-6.81,14.31-10.1,20.28c-0.65-3.33-1.31-7.05-1.09-8.15c1.15-1.6,5.99-5.04,6.36-7.18c0.21-1.23-0.56-3.39-0.72-3.77
	l1.91,1.32l-1.5-2.27l2.25,1.13l-1.91-1.72c0.18-0.03,2.61-0.89,2.29-0.9l-2.79-0.13l2.73-1.21l-2.1,0.45l0.88-0.5l-0.94,0.07
	l2.67-1.84l-3.17,1.62l1.26-2.45L55.7,45.8l1.12-4.44l-1.61,4.16l-0.11-3.48l-0.55,3.38l-1.24-4.6l0.41,4.02l-0.96-1.48
	c0.15,0.29,0.61,1.39,0.7,1.89l-2.13-2.45l1.45,2.29l-2.78-1.54l2.47,2.22l-3.01-0.91l3.04,1.57l-3.06,0.21l2.9,0.65l-2.78,1.69
	l2.47-0.46l-1.74,1.59l2.02-1.04l-0.35,1.8l1.24-1.49l-0.08,1.51l0.7-1.36c0.62,0.75,0.77,2.41,0.09,3.22
	c-1.05,1.25-3.58,2.29-4.17,3c-0.31-0.7-0.89-5.12-0.96-5.16c-0.6-7.24,2.16-12.4,2.4-18.91c0.26-7.18,1.33-7.1,3.39-13.45
	c0.09-0.26,1.52-2.17,1.6-2.43c0.36-1.13,0.02-2.72,0.33-3.87l0.49,0.99l0.03-1.09l1.13,1.99l-0.41-1.91l1.96,2.01l-1.25-3.04
	l2.4,1.86l-1.87-2.49c0.22,0.01,3.29-0.44,2.92-0.54l-3.27-0.8l3.52-0.8L59.6,8.17l1.16-0.39l-1.12-0.14l3.59-1.56L59.1,7.26
	l2.07-2.6L58.23,7l2.36-4.99l-2.87,4.55l0.69-4.15l-1.44,3.87l-0.4-5.73l-0.45,4.85l-0.79-1.97c0.12,0.38,0.4,1.79,0.38,2.4
	l-1.95-3.4l1.19,3.05l-2.93-2.47l2.41,3.2l-3.35-1.78L54.3,7l-3.67-0.46l3.28,1.45l-3.68,1.35l3.03,0.03l-2.43,1.47l2.63-0.76
	l-1.62,1.47l2.15-0.9l-2.51,2.69c1.77-1.47,2.49-1.55,2.66-1.79c-0.25,1.2-0.17,2.61-0.58,3.71c-0.21,0.55-1.27,1.22-1.46,1.73
	c-0.72,1.88-1.38,3.36-1.87,3.64c-0.14,0.08-2.63-1.15-2.73-3.36l0.8,0.71l-0.73-1.22l1.82,0.92l-1.57-1.8l2.09,0.72l-1.87-1.28
	c0.15-0.05,2.17-1.08,1.88-1.05l-2.44,0.21l2.24-1.37l-1.77,0.64l0.71-0.54l-0.81,0.17l2.11-1.91l-2.57,1.78l0.81-2.28l-1.47,2.3
	l0.45-3.99l-0.92,3.81l-0.5-3.02l-0.08,3l-1.62-3.85l0.83,3.45l-1.01-1.17c0.17,0.23,0.7,1.14,0.83,1.56l-2.14-1.88L44.09,13
	l-2.59-1.01l2.41,1.64l-2.73-0.44l2.82,1.01l-2.64,0.54l2.6,0.23l-2.22,1.79l2.1-0.69l-1.33,1.58l1.63-1.14l-0.77,1.4l1.27-1.12
	l-1.1,2.44l1.6-1.89c-0.43,1.88,3.32,5.86,3.72,7.51c0.08,0.38-0.52,8.37-2.21,10.23c-0.23,0.25-1.96-0.3-2.27-0.83
	c-0.39-0.67-0.11-2.67-0.19-3.72l0.8,1.38l-0.23-1.29l1.22,1.21l-1.06-1.8l1.68,0.95l-1.4-1.4c0.14-0.01,2.03-0.58,1.79-0.6
	l-2.13-0.21L47,27.96l-1.62,0.26l0.7-0.35l-0.72,0.01l2.12-1.3l-2.49,1.11l1.07-1.82l-1.64,1.74l1.03-3.35l-1.4,3.12l0.06-2.67
	l-0.56,2.56l-0.77-3.57l0.15,3.1l-0.67-1.17c0.11,0.22,0.41,1.09,0.46,1.48l-1.53-1.96l1.02,1.81l-2.06-1.29l1.8,1.8l-2.27-0.82
	l2.26,1.32l-2.35,0.04l2.2,0.62l-2.19,1.18l1.91-0.25l-1.4,1.14l1.59-0.71l-0.89,1.07l1.27-0.76l-1.34,1.92l1.88-1.69
	c-0.04,0.92-0.65,3.41-0.22,4.59c0.32,0.87,1.96,2.99,3.62,5.06c-0.85,2.62-0.94,4.48-1.11,7.21c-0.08-0.06-0.45-1.41-1.37-2.51
	c-0.45-0.54-1.51-0.97-2.29-1.16l2.49,0.27l-1.87-0.9c0.13-0.06,1.81-1.27,1.56-1.21l-2.18,0.53l1.84-1.55l-1.52,0.82l0.57-0.59
	l-0.71,0.26l1.65-2.02l-2.08,1.96l0.42-2.17l-1.02,2.28l-0.14-3.67l-0.3,3.57l-0.87-2.66l0.34,2.73l-1.99-3.26l1.22,3.01l-1.07-0.92
	c0.18,0.19,0.79,0.94,0.96,1.3l-2.19-1.41l1.64,1.44l-2.49-0.56l2.41,1.15l-2.53-0.02l2.69,0.53l-2.31,0.85l2.39-0.15l-1.76,1.93
	l1.8-0.91l-0.98,1.61l1.32-1.25l-0.51,1.37l0.99-1.19l-0.66,2.36l1.13-2.34l0.35,1.4l0.09-1.59c0.83,0.39,1.88,1.45,2.08,1.8
	c1.31,2.27,0.75,4.14,3.16,6.33c1.01,5.51,0.89,9.31,1.55,15.49c-0.81-1.3-2.86-2.67-3.72-3.87c-2.61-3.63-3.2-7.37-6.69-10.01
	l-3.72-2.96c1.24-2.09,2.19-3.79,2.42-6.53c0.09-1.05,0.05-1.93,0.06-3.06c0.06-3.89,0.92-3.74,1.61-7.19
	c0.31-1.56,0.08-3.87,0.51-5.49c0.08-0.32,1.25-1.42,1.33-1.74c1.97-7.72,5.42-5.34,1.08-15.84l2.24,1.43l-1.47-1.68l2.5,0.76
	L40.62,10l3.29,0.8l-3.03-1.68c0.23-0.09,3.15-1.95,2.72-1.88l-3.69,0.67l3.21-2.41l-2.61,1.22l1.01-0.92l-1.21,0.37l2.94-3.22
	l-3.67,3.08l0.92-3.59l-1.92,3.72L38.7,0l-0.85,5.94L36.66,1.4L36.96,6l-3.02-5.64l1.76,5.14L34,3.85c0.29,0.33,1.22,1.64,1.48,2.26
	l-3.53-2.57l2.59,2.56l-4.1-1.18l3.91,2.16l-4.22-0.28l4.45,1.14l-3.95,1.2l4-0.02l-2.8,2.91l2.78-1.21l-1.75,2.31l2.28-1.67
	l-0.98,2.24l1.77-1.89l-1.19,3.6l1.32-2.71c0.11,0.62,0.32,1.52,0.32,1.52l0.71-1.8c4.29,9.8-2.17,11.13-3.14,16.06
	c-0.33,1.67-0.19,3.56-0.51,4.97c-0.06,0.27-0.55,0.72-0.61,0.98c-0.48,2.11-0.48,3.53-0.77,4.22c-0.49,0.05-2.08-2.82-2.52-3.36
	c-1.53-1.91-1.6-4.7-0.5-7.19c1.5-3.39,3.67-6.7,2.77-8.81l1.43,1.36l-0.87-1.62l1.81,0.68l-1.46-1.12
	c0.14,0.01,1.69,0.15,1.48,0.02l-1.66-1.02l1.9-0.23l-1.3-0.3l0.74-0.25l-0.7-0.14l1.37-0.77l-1.69,0.47l1.36-1.84l-1.9,1.61
	l1.61-3.57l-1.92,3.23l0.54-3.01l-1,2.78l-0.09-4.2l-0.41,3.54l-0.44-1.47c0.06,0.28,0.2,1.32,0.17,1.76l-1.12-2.55l0.66,2.27
	l-1.76-1.9l1.42,2.42l-2.04-1.41l1.94,1.98l-2.28-0.45l2.01,1.17l-2.34,0.87l1.9,0.12l-1.56,1l1.66-0.47l-1.06,1.03l1.37-0.59
	l-1.64,1.89l2.15-1.22c0.24,1.44-0.93,4.07-2.53,5.21c-0.97-1.33-3.49-4.56-4.12-5.6l1.45,0.76l-0.77-0.93l2.41,0.84l-1.74-1.31
	l2.61,0l-2.77-1.39l3.38-0.2l-3.39-0.72c0.19-0.15,2.44-2.79,2.06-2.59l-3.34,1.72l2.37-3.25l-2.14,1.93l0.69-1.18l-1.05,0.71
	l1.87-3.94l-2.61,4.01l-0.17-3.7l-0.75,4.12l-1.68-5.92l0.92,5.93l-2.47-3.99l1.63,4.3l-4.54-4.52l3.18,4.4l-2.11-1.08
	c0.37,0.23,1.64,1.21,2.08,1.73l-4.13-1.43l3.23,1.69l-4.26,0.07l4.37,0.92L13.67,17l4.59-0.21l-3.42,2.3l3.82-1.19l-2.1,3.83
	l2.57-2.2l-0.96,3.01l1.65-2.56l-0.28,2.43l1.14-2.33l-0.14,4.1l0.52-3.28c0.29,0.56,0.76,1.36,0.76,1.36l-0.16-1.85
	c0.05,0.09,3.72,7.09,3.7,7.27c-1.01,11.57,5.12,12.12,5.84,17.35c0.01,1.68-0.78,2.03-1.59,3.23c-2.28-2.23-5.03-3.71-5.96-5.87
	c-1.1-2.61-0.03-6.37-2.79-8.35l1.67,0.55l-1.57-1.33l1.87,0.34l-1.75-0.84c0.12-0.06,1.53-0.73,1.29-0.72l-1.87,0.08L22.04,31
	l-1.25,0.43l0.53-0.55l-0.66,0.25l0.85-1.25l-1.27,1.19l0.4-2.04l-0.96,2.14l-0.13-3.45l-0.28,3.35l-0.81-2.5l0.32,2.56l-1.87-3.06
	l1.15,2.82l-1-0.86c0.17,0.18,0.73,0.88,0.9,1.22l-2.06-1.33l1.54,1.35l-2.33-0.53l2.26,1.08l-2.37-0.02l2.53,0.49l-2.17,0.8
	l2.24-0.14l-1.65,1.81l1.69-0.85l-0.92,1.51l1.24-1.18l-0.48,1.29l0.93-1.12l-0.62,2.22l1.24-2.1c1.62,1.31,1.79,5.21,0.38,4.48
	c0,0-7.01-2.87-8.4-4.89l2.7,0.09l-1.94-0.98l3.11-0.29l-3.51-1.05l3.29-0.78L11.19,31c0.16-0.18,1.92-3.17,1.58-2.9l-2.99,2.27
	l1.77-3.61l-1.78,2.27l0.48-1.28l-0.91,0.88l1.17-4.2l-1.88,4.4l-0.81-3.62L7.8,29.4l-2.68-5.54l1.93,5.68l-3.12-3.5l2.35,3.96
	l-5.25-3.66l3.89,3.79l-2.26-0.7c0.41,0.17,1.83,0.91,2.35,1.35l-4.31-0.69l3.47,1.1L0,31.99l4.46,0.15l-3.89,1.66l4.48-1
	l-2.97,2.86l3.56-1.83l-1.4,4.14l2.16-2.61L5.97,38.5l1.18-2.81l0.14,2.44l0.72-2.49l0.57,4.06l-0.05-3.33
	c0.38,0.51,0.98,1.21,0.98,1.21l-0.06-1.42c1.72,2.28,5.35,3.87,7.7,5.35c2.55,1.6,4.19,3.65,6.33,6.11
	c0.89,1.02,5.66,5.91,2.37,6.27c-6.59,0.72-6.36-4.66-9.14-8.58c-0.24-0.34-0.67-0.67-1.09-0.86l0.88-0.47l-1.1-0.2l1.48-0.6
	l-1.87,0l1.5-0.87l-1.71,0.45c0.05-0.11,0.63-1.41,0.47-1.26l-1.25,1.16l0.42-1.69l-0.62,1.03l0.05-0.7l-0.32,0.56l-0.14-1.37
	l-0.17,1.57l-0.93-1.65l0.6,2.05l-2.12-2.32l1.78,2.5l-2.04-1.25L12.25,43l-3.11-1.02l2.46,1.28c-0.37,0-1.01,0-1.21-0.01
	c0.22,0.02,1.03,0.17,1.35,0.31l-2.21,0.3l1.86,0.03l-1.93,1.01l2.21-0.58l-1.66,1.38l2.04-1.15l-1.03,1.84l1.47-1.42l-0.08,2.23
	l0.67-1.59l0.25,1.6l0.17-1.55l0.43,1.17l-0.01-1.33l0.88,1.9l-0.37-2.11c0.15,0.33,0.67,0.66,0.84,1.1
	c0.49,1.29,1.08,2.56,1.7,5.11c-3.11,0.19-5.52-1-6.17-1.46l1.24-0.28L10.4,49.6l1.74-0.57L10,48.7l2.21-0.86l-2.42,0.25
	c0.1-0.14,1.03-2.39,0.81-2.17l-1.86,1.87l0.88-2.68l-1.01,1.75l0.21-0.93l-0.54,0.7l0.4-3.03L7.8,46.83L6.89,44.4l0.39,2.91
	l-2.4-3.59l1.9,3.76l-2.51-2.13l2.02,2.52l-4.01-2.03l3.08,2.25l-1.64-0.26c0.3,0.08,1.36,0.45,1.76,0.71l-3.06-0.06l2.52,0.43
	l-2.83,0.97l3.12-0.33l-2.54,1.54l3.02-1.13l-1.79,2.28l2.29-1.62l-0.57,3.01l1.24-2.02l0.01,2.22l0.55-2.07l0.34,1.68l0.26-1.8
	l0.8,2.77l-0.11-2.45c0.31,0.31,0.55,0.89,0.55,0.89L9.23,51.8c1.09,1.02,3.59,1.86,5.11,2.29c1.25,0.36,2.72,0.34,4.66,1.68
	c5.52,3.81,10.95-0.48,15.19,2.14c1.01,0.62,1.59,1.17,1.99,2.7c-2.38,0.15-4.48,0.56-6.87,0.66c-9.67,0.38-7.64-1.53-12.3-2.16
	c-1.31-0.17-1.97,0.84-4,0.53l0.12-0.48l1.22-0.71c0,0-0.77,0.09-1.29,0.18l1.93-2.02l-2.68,2.17l0.98-1.95l-1.48,1.42l0.88-2.4
	l-1.53,2.17l0.16-2.84l-1.5,3.35l-1.14-3.16l0.19,3.46l-2.19-3.18l1.44,3.25l-2.83-2.46l2.11,2.89l-2.77-1.31l3.05,2.04
	c-0.57-0.03-1.88-0.38-2.22-0.51l1.79,0.87l-4.57,0.1l5.33,0.75L4.3,62.37L8.22,62l-4.44,2.39l4.81-1.88l-2.38,2.59l2.57-1.76
	l-1.36,3.78l1.68-3.25l0.06,1.06l0.44-1.06L9.4,66.29l0.97-3.23l0.54,3.11c0.06,0.36,0.68-2.49,0.69-2.69l2.2,1.9l-1.58-2.36
	l2.34,1.15l-1.33-1.75l1.32,0.22c0.95,0.14,2.18-0.09,3.11,0.11c1.45,0.31,2.55,1.15,3.53,2.1c-0.1,1.23-1.67,1.62-2.97,1.98
	l0.54-0.83l-1,0.83l0.58-1.78l-1.41,1.67l0.36-1.99l-0.9,1.87c-0.06-0.13-1.27-1.81-1.22-1.56l0.53,2.18l-1.55-1.83l0.82,1.52
	l-0.59-0.57l0.26,0.71l-2.02-1.64l1.97,2.08l-2.17-0.42l2.29,1.02l-3.67,0.14l3.57,0.3l-2.66,0.87l2.73-0.34l-3.26,2l3.01-1.23
	l-0.92,1.07c0.19-0.18,0.94-0.79,1.3-0.96l-1.41,2.2l1.43-1.64l-0.56,2.49l1.15-2.41l-0.02,2.53l0.52-2.69l0.86,2.31l-0.16-2.39
	l1.93,1.76l-0.91-1.8l1.62,0.98l-1.25-1.32l1.37,0.51l-1.19-0.99l2.36,0.66l-1.76-1.08c1.49,0.13,3.29-0.08,4.76-1.41
	c0.75-0.69,2.1-2.28,3.4-2.59c13.39-3.22,19.34,7.23,19.61,19.41l0,0.15c-0.03,8.03,0.33,16.17,0.33,24.23v0.5v11.44v0.07
	c0,0.83,0,1.62-0.02,2.38c-0.96-0.32-1.81-0.65-2-0.28c-1.12,2.24-3,1.58-5.53,1.58c-1.89,0-1.45-3.19-3.5-1.06
	c-1.24,1.28-1.35,0.03-3.21,0.03c-2.27,0,0.89,0.97-4.39,0.97c-2.08,0,1.16-4.5-4.36,0.15c-0.51,0.43-0.16,1.3-0.79,1.94
	c-0.76,0.77-4.88-1.97-4.96,1.34C18.14,127.93,18.05,128.16,17.93,128.43"/>
</svg>
