<?xml version="1.0" encoding="utf-8"?>
<!-- Generator: Adobe Illustrator 25.4.1, SVG Export Plug-In . SVG Version: 6.00 Build 0)  -->
<svg version="1.1" id="Layer_2" xmlns="http://www.w3.org/2000/svg" xmlns:xlink="http://www.w3.org/1999/xlink" x="0px" y="0px"
	 viewBox="0 0 100 103.94" style="enable-background:new 0 0 100 103.94;" xml:space="preserve">
<style type="text/css">
	.st0{fill:url(#SVGID_1_);}
</style>
<g>
	<linearGradient id="SVGID_1_" gradientUnits="userSpaceOnUse" x1="16.0995" y1="19.2216" x2="98.1905" y2="101.3127">
		<stop  offset="0" style="stop-color:#01979B"/>
		<stop  offset="0.4722" style="stop-color:#0D5E6B"/>
		<stop  offset="0.896" style="stop-color:#562E90"/>
	</linearGradient>
	<path class="st0" d="M0,88.42c2.09-1.57,4.41-2.81,6.84-3.76c1.22-0.47,2.47-0.85,3.74-1.14c1.28-0.25,2.54-0.59,3.8-0.93
		c1.25-0.36,2.5-0.73,3.71-1.21c1.24-0.43,2.27-1.26,3.36-1.97c1.06-0.75,1.9-1.8,2.46-2.97c0.58-1.17,0.96-2.42,1.27-3.68
		c0.65-2.53,0.42-5.2-0.09-7.74l-1.75-7.62c-0.28-1.28-0.58-2.54-0.8-3.83c-0.16-1.3-0.23-2.61-0.21-3.91
		c0.06-2.59,0.38-5.29,1.72-7.58c0.67-1.09,1.66-2.18,3.03-2.39c0.68-0.11,1.37,0.22,1.81,0.72c0.45,0.49,0.82,1.02,1.18,1.58
		c1.4,2.18,2.26,4.92,1.57,7.51c-0.34,1.28-0.99,2.46-1.89,3.44c-0.49,0.47-1.17,0.75-1.85,0.71c-0.69-0.03-1.31-0.35-1.84-0.75
		c-1.05-0.82-1.81-1.93-2.48-3.05c-0.66-1.14-1.21-2.32-1.71-3.53c-0.51-1.23-0.68-2.56-0.67-3.87c0.02-1.32,0.29-2.65,0.91-3.83
		c0.61-1.18,1.63-2.14,2.8-2.75c1.14-0.65,2.51-1.04,3.84-0.79c1.33,0.24,2.49,1,3.45,1.89c0.98,0.89,1.77,1.98,2.36,3.15
		c1.18,2.36,1.71,5,1.74,7.63c0.01,1.31-0.1,2.63-0.37,3.92c-0.25,1.3-0.74,2.53-1.25,3.73c-1.04,2.4-2.32,4.72-3.98,6.76
		c-0.83,1.02-1.77,1.96-2.84,2.74c-0.54,0.38-1.11,0.73-1.72,1c-0.31,0.13-0.61,0.27-0.93,0.36c-0.17,0.04-0.29,0.11-0.51,0.13
		c-0.18,0.02-0.35,0.01-0.52,0c-2.68-0.2-5.14-1.57-7.01-3.42c-1.89-1.86-3.23-4.2-4.18-6.64c-0.94-2.46-1.55-5.01-1.89-7.63
		c-0.21-2.63,0.02-5.27,0.68-7.83c0.36-1.26,0.78-2.56,1.75-3.57c0.24-0.25,0.55-0.45,0.89-0.57c0.35-0.12,0.74-0.11,1.08-0.03
		c0.68,0.19,1.25,0.59,1.75,1.03c1,0.89,1.79,1.98,2.41,3.15c0.58,1.17,1.1,2.48,0.87,3.88c-0.11,0.69-0.65,1.35-1.3,1.59
		c-0.61,0.27-1.31,0.47-2.02,0.34c-0.72-0.12-1.31-0.63-1.67-1.21c-0.37-0.58-0.59-1.23-0.75-1.87c-0.94-5.18-0.27-10.67,2.19-15.35
		c1.27-2.3,2.47-4.61,4-6.75c1.51-2.14,3.23-4.15,5.18-5.91c1.92-1.8,4.14-3.25,6.43-4.51c1.14-0.64,2.3-1.24,3.49-1.8
		c1.2-0.54,2.38-1.09,3.7-1.4l0.04,0.45c-1.81,0.01-3.61,0.49-5.34,1.08c-1.74,0.6-3.41,1.36-5.08,2.16l-0.02,0.01
		c-1.81,0.79-3.46,2.01-4.97,3.32c-1.51,1.33-2.87,2.83-4.07,4.45c-1.2,1.62-2.26,3.34-3.18,5.13c-0.85,1.79-1.46,3.76-2.13,5.66
		l0,0.01c-0.05,0.13-0.18,0.19-0.31,0.15c-0.11-0.04-0.17-0.14-0.16-0.25c0.14-1.88,0.38-3.74,0.83-5.57
		c0.42-1.87,1.43-3.52,2.4-5.11c2.01-3.16,4.35-6.13,7.08-8.71c1.37-1.28,2.81-2.5,4.4-3.51c0.78-0.52,1.63-0.97,2.42-1.43
		c0.8-0.47,1.61-0.94,2.44-1.39c3.27-1.78,6.82-3.31,10.64-3.55c0.95-0.04,1.92-0.01,2.87,0.31c0.46,0.17,0.93,0.43,1.27,0.83
		c0.35,0.39,0.53,0.92,0.58,1.42c0.09,1.03-0.31,2-0.86,2.79c-0.57,0.79-1.28,1.47-2.14,1.95c-0.44,0.22-0.91,0.45-1.51,0.36
		c-0.31-0.05-0.62-0.31-0.7-0.63C44.15,7.53,44.22,7.24,44.31,7c0.4-0.97,1.1-1.64,1.82-2.27c0.73-0.62,1.53-1.14,2.39-1.57
		c0.86-0.44,1.79-0.69,2.68-0.95c3.6-1.02,7.29-1.77,11.04-2.05C64.1,0.02,66,0.05,67.86,0.23c1.86,0.15,3.73,0.36,5.58,0.67
		c3.7,0.63,7.33,1.72,10.7,3.41c3.37,1.68,6.43,3.96,9.02,6.69c1.33,1.34,2.4,2.94,3.33,4.56c0.93,1.64,1.71,3.36,2.28,5.16
		c0.57,1.8,0.94,3.67,1.02,5.56c0.08,1.9-0.08,3.76-0.28,5.63c-0.24,1.86-0.53,3.74-1.31,5.52c-0.22,0.45-0.41,0.85-0.83,1.28
		c-0.16,0.14-0.42,0.17-0.58,0.13c-0.17-0.04-0.3-0.1-0.42-0.17c-0.23-0.14-0.42-0.3-0.6-0.46c-0.71-0.65-1.32-1.35-1.98-2
		c-0.66-0.66-1.32-1.25-2.11-1.72c-0.78-0.51-1.56-1-2.37-1.45c-1.62-0.89-3.32-1.63-5.05-2.29c-6.98-2.54-14.39-3.71-21.78-4.52
		l0.03,0c-2.17-0.02-4.39-0.07-6.51,0.2c-0.49,0.07-1,0.27-1.53,0.44l-1.57,0.5c-1.05,0.32-2.11,0.63-3.18,0.89
		c-1.07,0.26-2.16,0.49-3.27,0.61c-0.56,0.05-1.13,0.09-1.72,0.01c-0.28-0.03-0.62-0.13-0.88-0.27c-0.27-0.13-0.51-0.29-0.75-0.45
		c-1.92-1.39-2.73-3.88-2.47-6.13c0.1-1.13,0.45-2.23,0.84-3.26c0.39-1.04,0.83-2.06,1.34-3.04c0.49-0.99,1.1-1.94,1.64-2.86
		c0.13-0.24,0.23-0.44,0.28-0.67l0.19-0.79c0.11-0.49,0.17-1.09-0.03-1.27c-0.15-0.2-0.81-0.14-1.31-0.09
		c-0.53,0.06-1.06,0.14-1.59,0.24c-1.06,0.21-2.11,0.49-3.12,0.85c-0.5,0.19-0.99,0.4-1.45,0.65c-0.43,0.25-0.91,0.59-1.38,0.87
		c-0.94,0.57-1.86,1.13-2.75,1.76c-3.56,2.49-6.6,5.67-9.36,9.05c-1.41,1.64-2.47,3.54-3.4,5.5c-0.46,0.98-0.87,1.99-1.22,3.01
		c-0.34,1.02-0.65,2.07-0.63,3.09c0.02,0.53,0.02,1.11,0.13,1.54c0.08,0.2,0.06,0.18,0.33,0.27l0.19,0.05
		c0.1,0.02,0.03,0.01,0.08,0.01c0.05,0,0.16-0.05,0.25-0.1c0.81-0.51,1.52-1.4,2.09-2.27c0.28-0.45,0.53-0.92,0.71-1.4
		c0.09-0.25,0.16-0.47,0.22-0.74c0.06-0.28,0.14-0.55,0.21-0.82c0.31-1.07,0.69-2.11,1.11-3.13c0.83-2.05,1.83-4.03,3.04-5.9
		c1.22-1.89,2.83-3.45,4.42-4.96c1.62-1.5,3.33-2.91,5.2-4.12c0.94-0.59,1.9-1.17,3.02-1.53c0.28-0.09,0.57-0.15,0.9-0.18
		c0.17,0,0.35-0.01,0.59,0.12c0.27,0.13,0.39,0.5,0.35,0.7c-0.05,0.42-0.21,0.66-0.36,0.92c-0.15,0.25-0.32,0.48-0.5,0.71
		c-0.35,0.45-0.72,0.86-1.11,1.27c-0.42,0.43-0.84,0.75-1.24,1.12c-0.8,0.73-1.54,1.51-2.23,2.34c-1.38,1.66-2.5,3.52-3.36,5.5
		c-0.22,0.49-0.41,1.01-0.6,1.5c-0.16,0.47-0.23,1-0.27,1.52c-0.07,1.05,0.03,2.12,0.3,3.13c0.28,1.01,0.75,1.97,1.46,2.69
		c0.71,0.73,1.67,1.16,2.7,1.27c2.11,0.19,4.3-0.08,6.4-0.56c1.05-0.24,2.1-0.54,3.12-0.89c1.01-0.35,2.03-0.79,3.08-1.14
		c2.09-0.71,4.21-1.34,6.41-1.7c1.08-0.19,2.25-0.25,3.33-0.23c1.09,0,2.19-0.02,3.29,0c4.42,0.05,8.81,0.74,13.08,1.76
		c4.3,0.93,8.46,2.53,12.46,4.35c1.99,0.95,3.99,1.91,5.73,3.39c0.41,0.38,0.86,0.83,1.05,1.46c0.19,0.56,0.23,1.23,0.02,1.83
		c-0.21,0.6-0.65,1.08-1.12,1.43c-0.49,0.35-1,0.6-1.58,0.78l0.05-0.02c-1.98,0.84-4.01,1.49-6.11,1.94
		c-1.05,0.21-2.12,0.37-3.2,0.41c-1.09,0.06-2.16-0.06-3.21-0.13c-1.06-0.08-2.12-0.15-3.18-0.29c-1.06-0.15-2.15-0.32-3.17-0.87
		c-0.5-0.27-0.98-0.73-1.2-1.31c-0.21-0.53-0.33-1.08-0.38-1.64c-0.08-1.11,0.13-2.3,0.85-3.23c0.36-0.46,0.85-0.83,1.4-1.04
		c0.14-0.05,0.28-0.1,0.46-0.12c0.15-0.02,0.45-0.03,0.66,0.22c0.18,0.24,0.16,0.46,0.14,0.63c-0.02,0.16-0.06,0.31-0.11,0.45
		c-0.19,0.55-0.47,1.02-0.76,1.48c-0.32,0.46-0.6,0.89-1.11,1.29c-0.06,0.04-0.19,0.11-0.25,0.13L72.3,43l-0.39,0.12
		c-0.26,0.08-0.52,0.15-0.78,0.22c-0.52,0.13-1.06,0.24-1.6,0.3c-0.54,0.06-1.1,0.08-1.66,0.02c-0.58-0.07-1.08-0.22-1.6-0.38
		c-0.52-0.17-1.03-0.36-1.52-0.62c-0.48-0.28-1.01-0.58-1.28-1.24c-0.14-0.34-0.04-0.75,0.06-0.99c0.1-0.28,0.25-0.54,0.43-0.77
		c0.35-0.47,0.81-0.84,1.32-1.1c0.5-0.27,1.08-0.42,1.63-0.47c0.53-0.05,1.05-0.12,1.6-0.15c0.28-0.01,0.55-0.03,0.9,0.06
		c0.09,0.03,0.19,0.07,0.28,0.14c0.09,0.06,0.19,0.22,0.21,0.29c0.07,0.16,0.1,0.33,0.11,0.49c0.05,0.69-0.46,1.3-1,1.54
		c-2.05,0.85-4.13,1.24-6.26,1.51c-2.14,0.22-4.25,0.2-6.38,0.21c-2.12-0.02-4.24-0.08-6.36-0.26c-1.06-0.09-2.12-0.21-3.18-0.4
		c-1.07-0.2-2.08-0.52-3.1-0.86c-1.01-0.35-2.02-0.83-2.89-1.51c-0.88-0.68-1.56-1.59-2.04-2.56c-0.49-0.98-0.81-2.02-1.03-3.07
		c-0.14-0.49-0.23-1.15-0.03-1.72c0.19-0.58,0.6-1.06,1.07-1.38c0.48-0.32,1.02-0.58,1.67-0.54c0.59,0.05,1.11,0.22,1.62,0.4
		c1.01,0.39,1.98,0.88,2.86,1.52c1.71,1.25,3.4,2.51,5.17,3.65c1.77,1.1,3.6,2.25,5.58,2.7c1,0.14,2.09,0.25,3.12,0.32
		c0.5,0.04,1.02-0.02,1.56-0.04c0.45-0.03,0.97-0.19,1.46-0.35c1.99-0.66,3.9-1.55,5.9-2.33c1.11-0.29,2.12-0.39,3.21-0.49
		c0.53-0.03,1.1-0.06,1.65,0.05c0.53,0.09,1.07,0.2,1.59,0.4c0.52,0.21,1.02,0.51,1.42,0.94c0.4,0.43,0.66,0.97,0.78,1.52
		c0.26,1.1,0.11,2.28-0.42,3.28c-0.53,0.99-1.32,1.8-2.3,2.36l-2.82,1.47c-0.47,0.24-0.94,0.49-1.38,0.74
		c-0.05,0.03-0.12,0.07-0.11,0.07c-0.04,0.03-0.15,0.13-0.2,0.16l-0.33,0.21c-0.1,0.07-0.19,0.14-0.23,0.2
		c-0.05,0.08-0.04,0.04-0.03,0.08c0.11,0.25,0.7,0.41,1.14,0.38c0.48-0.02,0.96-0.21,0.76-0.48c-0.07-0.19-0.21-0.4-0.36-0.54
		c-0.03-0.03-0.08-0.06-0.07-0.05c0.04,0.01-0.06-0.02-0.09-0.03l-0.1-0.04l-0.37-0.13c-0.48-0.17-0.98-0.28-1.48-0.32
		c-1-0.08-2.06,0.07-3.05,0.32c-0.98,0.27-1.95,0.71-2.67,1.38l-1.08,1.15l-0.56,0.58c-0.11,0.1-0.17,0.18-0.37,0.3l-0.32,0.2
		c-0.47,0.28-1.03,0.55-1.67,0.47c-0.15-0.01-0.33-0.08-0.43-0.11c-0.05-0.02-0.11-0.03-0.11-0.03s0.07,0.02,0.15-0.11
		c0.05-0.12,0.01-0.13,0.02-0.13c0.05,0.11,0.26,0.34,0.43,0.5c0.18,0.16,0.39,0.33,0.56,0.38c0.21,0.06,0.46,0.1,0.71,0.11
		c0.5,0.02,1.01-0.02,1.51-0.13c0.99-0.29,2.08-0.49,3.12-0.65c0.53-0.08,1.05-0.16,1.59-0.22c0.14-0.01,0.27-0.03,0.44-0.02
		l0.4,0.03l0.79,0.07c0.53,0.05,1.06,0.11,1.59,0.18c0.27,0.04,0.53,0.07,0.82,0.15c0.34,0.11,0.53,0.27,0.77,0.42
		c0.45,0.31,0.87,0.63,1.28,1.01c0.1,0.1,0.2,0.19,0.3,0.31c0.1,0.12,0.18,0.27,0.24,0.39c0.12,0.26,0.22,0.52,0.28,0.81
		c0.05,0.29,0.09,0.6-0.06,0.94c-0.15,0.35-0.53,0.53-0.81,0.59c-0.6,0.12-1.11,0.06-1.67,0.03c-1.06-0.13-2.1-0.28-3.15-0.44
		c-1.05-0.16-2.09-0.32-3.14-0.51c-0.26-0.05-0.52-0.1-0.79-0.16l-0.2-0.05c-0.08-0.03-0.18-0.06-0.24-0.09l-0.35-0.2
		c-0.24-0.14-0.48-0.28-0.7-0.54c-0.05-0.07-0.11-0.15-0.14-0.26c-0.04-0.11-0.02-0.26,0-0.33c0.04-0.15,0.09-0.28,0.15-0.41
		c0.44-0.99,1.14-1.96,2.18-2.46c0.98-0.52,2.12-0.71,3.21-0.64c1.08,0.08,2.13,0.25,3.18,0.53c0.52,0.15,1.04,0.3,1.54,0.63
		c0.45,0.33,0.86,0.61,1.26,1.14l-0.43-0.02c0.45-0.72-0.08-1.68-0.39-2.63l-0.06-0.2c-0.01-0.03-0.02-0.09-0.02-0.14
		c0.02-0.08-0.02-0.14,0.11-0.25c0.3-0.11,0.27,0,0.28-0.03c0.13,0.05,0.26,0.11,0.38,0.17c0.24,0.14,0.45,0.31,0.64,0.5
		c0.19,0.2,0.34,0.36,0.51,0.61c0.14,0.23,0.25,0.46,0.36,0.69c0.41,0.93,0.7,1.93,0.7,2.98c0,0.53-0.1,1.03-0.18,1.52
		c-0.09,0.49-0.18,1-0.36,1.49c-0.33,0.99-0.95,1.84-1.62,2.59c-0.09,0.09-0.15,0.19-0.32,0.3c-0.14,0.09-0.26,0.13-0.39,0.18
		c-0.26,0.09-0.51,0.14-0.77,0.17c-0.52,0.06-1.04,0.07-1.57-0.06c-0.55-0.15-0.97-0.43-1.4-0.74c-0.11-0.09-0.22-0.17-0.32-0.36
		c-0.05-0.08-0.09-0.3,0.03-0.43c0.13-0.13,0.14-0.11,0.21-0.17c0.24-0.14,0.49-0.25,0.76-0.31c0.53-0.13,1.11-0.07,1.59,0.07
		c0.49,0.13,0.99,0.3,1.44,0.59c0.45,0.29,0.82,0.69,1.12,1.11c0.29,0.41,0.57,0.85,0.76,1.34c0.4,0.96,0.5,2.02,0.45,3.03
		c-0.03,0.51-0.08,1.01-0.16,1.51c-0.04,0.25-0.09,0.5-0.14,0.74c-0.04,0.23-0.11,0.52-0.23,0.76c-0.47,0.94-1.14,1.73-1.98,2.35
		c-0.41,0.31-0.94,0.54-1.45,0.62c-0.49,0.09-0.99,0.16-1.49,0.21c-1,0.1-2.01,0.11-3.02,0.03c-1-0.07-2-0.26-2.97-0.47
		c-0.97-0.2-1.95-0.4-2.92-0.62c-3.89-0.88-7.7-2.03-11.47-3.3c-1.9-0.63-3.73-1.4-5.55-2.22c-1.8-0.85-3.61-1.73-5.19-3.02
		c-0.19-0.16-0.38-0.34-0.56-0.53c-0.09-0.09-0.17-0.19-0.25-0.3l-0.11-0.15l-0.05-0.06c0-0.01-0.08-0.06,0.02,0
		c0.39,0.01,0.28-0.35,0.29-0.23l0.01,0.02l0.03,0.07l0.08,0.16l0.17,0.32c0.12,0.21,0.24,0.43,0.37,0.62
		c0.57,0.73,1.35,1.38,2.13,1.96c1.58,1.17,3.32,2.11,5.12,2.92c3.64,1.54,7.4,2.84,11.21,3.93c1.91,0.54,3.83,1.03,5.76,1.47
		l1.45,0.32l0.73,0.15l0.18,0.04l0.1,0.02c0.05,0.03,0.05-0.04,0.21,0.13c0.08,0.32-0.11,0.3-0.1,0.33l-0.07,0.03l-0.11,0.03
		l-0.19,0.05c-0.47,0.13-0.98,0.17-1.22,0.55c-0.4,0.36-0.75,0.64-1.05,1.02c-0.59,0.75-0.92,1.68-1.09,2.63
		c-0.17,0.96-0.18,1.94-0.19,2.93c0.01,1.98,0.11,3.96,0.17,5.95c0.03,0.99,0.04,1.99,0.01,2.99c-0.04,1-0.08,2.01-0.4,3.01
		c-0.71,1.85-1.48,3.74-2.78,5.31c-0.64,0.78-1.51,1.44-2.45,1.79c-0.89,0.4-1.79,0.86-2.72,1.22c-1.88,0.73-3.88,1.08-5.86,1.23
		c-1.99,0.15-3.99,0.13-5.98,0.01c-2-0.19-3.95-0.64-5.87-1.19c-1.91-0.57-3.79-1.29-5.56-2.22c-1.76-0.93-3.45-2.08-4.81-3.56
		c-2.88-2.71-5.57-5.78-7.29-9.4c-0.46-0.91-0.67-1.91-0.82-2.9c-0.11-0.99-0.17-2.05,0.31-3.01c0.24-0.47,0.71-0.85,1.24-0.95
		c0.5-0.11,1.08-0.11,1.55,0.18c0.48,0.29,0.75,0.8,0.88,1.29c0.14,0.5,0.17,1.01,0.14,1.53l0-0.03c0.24,2.41,0.57,4.83,1.18,7.18
		c0.15,0.58,0.34,1.16,0.57,1.71l0.78,1.65c0.51,1.1,1.04,2.2,1.63,3.26c1.18,2.11,2.66,4.07,4.48,5.68
		c1.79,1.63,3.95,2.81,6.22,3.67c4.55,1.72,9.56,1.95,14.35,1.21c2.4-0.36,4.76-0.99,7.01-1.91c2.24-0.93,4.37-2.16,6.16-3.8
		c1.79-1.63,3.17-3.73,3.74-6.1c0.31-1.17,0.51-2.39,0.31-3.59c-0.1-0.59-0.27-1.18-0.59-1.69c-0.31-0.51-0.8-0.91-1.38-1.08
		c-0.57-0.17-1.21-0.25-1.75-0.01c-0.56,0.22-0.84,0.89-0.64,1.46c0.16,0.59,0.65,0.99,1.14,1.34c0.5,0.35,1.03,0.65,1.57,0.92
		c1.09,0.53,2.23,0.98,3.42,1.2c1.2,0.18,2.42,0.06,3.64,0.06c2.44-0.05,4.88,0.09,7.28,0.49c2.4,0.4,4.77,1.03,7.07,1.81
		c2.31,0.81,4.32,2.29,6.07,3.97c1.75,1.7,3.31,3.58,4.76,5.53c-1.45-1.95-3.02-3.83-4.77-5.52c-1.76-1.67-3.76-3.15-6.07-3.95
		c-2.3-0.78-4.67-1.4-7.07-1.8c-2.4-0.4-4.84-0.53-7.27-0.48c-1.22,0-2.44,0.12-3.65-0.06c-1.2-0.22-2.35-0.67-3.45-1.2
		c-0.55-0.27-1.08-0.57-1.58-0.92c-0.49-0.34-1.01-0.77-1.18-1.39c-0.22-0.6,0.08-1.34,0.69-1.58c0.58-0.26,1.24-0.17,1.82,0
		c0.6,0.17,1.11,0.59,1.44,1.12c0.33,0.52,0.51,1.13,0.61,1.73c0.2,1.22,0,2.46-0.3,3.64c-0.58,2.39-1.97,4.53-3.77,6.18
		c-1.8,1.66-3.94,2.91-6.2,3.85c-2.26,0.93-4.63,1.58-7.04,1.94c-4.81,0.75-9.85,0.53-14.45-1.19c-2.28-0.86-4.48-2.05-6.29-3.7
		c-1.84-1.62-3.34-3.6-4.54-5.73c-0.6-1.06-1.14-2.16-1.65-3.27l-0.79-1.65c-0.25-0.57-0.43-1.15-0.59-1.75
		c-0.62-2.37-0.95-4.79-1.2-7.22c0-0.01,0-0.01,0-0.01l0-0.01c0.04-0.92-0.11-2.04-0.89-2.54c-0.78-0.42-1.98-0.19-2.38,0.66
		c-0.43,0.84-0.39,1.87-0.27,2.83c0.14,0.96,0.36,1.94,0.8,2.8c1.72,3.57,4.36,6.59,7.26,9.3c2.72,2.88,6.47,4.52,10.23,5.65
		c1.9,0.54,3.84,0.99,5.79,1.17c1.97,0.11,3.96,0.13,5.92-0.02c1.97-0.15,3.92-0.5,5.75-1.21c0.92-0.35,1.79-0.81,2.71-1.22
		c0.93-0.34,1.68-0.94,2.31-1.68c1.24-1.5,2.01-3.36,2.71-5.2c0.29-0.89,0.34-1.9,0.38-2.88c0.03-0.99,0.01-1.98-0.02-2.97
		c-0.05-1.98-0.16-3.97-0.17-5.96c0-1.95,0.06-4.13,1.36-5.82c0.31-0.41,0.74-0.76,1.08-1.06c0.03-0.03,0.17-0.23,0.3-0.29
		c0.13-0.08,0.26-0.13,0.38-0.17c0.25-0.09,0.5-0.14,0.74-0.2l0.17-0.04l0.07-0.02c0.01,0,0.01-0.01,0.01-0.01
		c0.03,0.02-0.12-0.03-0.05,0.26c0.12,0.12,0.05,0.04,0.04,0.06l-0.08-0.02l-0.18-0.04l-0.73-0.15l-1.46-0.32
		c-1.94-0.44-3.87-0.92-5.79-1.47c-3.83-1.09-7.59-2.39-11.27-3.94c-1.82-0.82-3.59-1.77-5.21-2.97c-0.8-0.61-1.58-1.23-2.23-2.07
		c-0.15-0.22-0.27-0.43-0.39-0.66l-0.18-0.34l-0.08-0.18l-0.04-0.1l-0.02-0.07c0.01,0.1-0.12-0.32,0.31-0.29
		c0.15,0.09,0.11,0.09,0.15,0.13l0.06,0.08l0.11,0.15c0.07,0.09,0.14,0.18,0.23,0.27c0.16,0.17,0.34,0.34,0.52,0.49
		c1.51,1.23,3.31,2.11,5.09,2.95c1.8,0.82,3.63,1.58,5.51,2.2c3.76,1.26,7.56,2.41,11.42,3.28c0.97,0.22,1.94,0.42,2.91,0.61
		c0.98,0.2,1.93,0.39,2.91,0.46c0.98,0.07,1.96,0.06,2.93-0.03c0.49-0.05,0.97-0.12,1.46-0.2c0.47-0.07,0.87-0.26,1.26-0.54
		c0.75-0.56,1.41-1.33,1.82-2.17c0.18-0.38,0.24-0.91,0.33-1.38c0.08-0.48,0.13-0.97,0.16-1.45c0.05-0.97-0.05-1.94-0.42-2.82
		c-0.18-0.44-0.43-0.84-0.71-1.24c-0.27-0.39-0.59-0.73-0.98-0.98c-0.39-0.25-0.83-0.41-1.3-0.53c-0.47-0.13-0.91-0.17-1.35-0.07
		c-0.22,0.05-0.43,0.14-0.62,0.25c-0.03,0.02-0.13,0.09-0.09,0.05c0.04-0.04,0.02-0.11,0.02-0.08c0.01,0.04,0.1,0.12,0.18,0.19
		c0.36,0.26,0.8,0.55,1.21,0.64c0.44,0.11,0.92,0.11,1.39,0.05c0.46-0.08,0.95-0.14,1.18-0.49c0.65-0.72,1.22-1.52,1.52-2.42
		c0.16-0.45,0.25-0.92,0.33-1.41c0.08-0.49,0.17-0.97,0.17-1.44c0-0.94-0.27-1.9-0.66-2.78c-0.19-0.46-0.43-0.82-0.77-1.15
		c-0.16-0.16-0.34-0.3-0.53-0.41c-0.1-0.05-0.2-0.1-0.3-0.14c-0.02-0.04-0.08,0.06,0.19-0.04c0.1-0.11,0.08-0.12,0.09-0.17
		l0.01,0.04l0.05,0.16c0.15,0.46,0.35,0.92,0.49,1.42c0.16,0.52,0.16,1.12-0.16,1.65c-0.07,0.11-0.22,0.15-0.33,0.08
		c-0.03-0.02-0.05-0.04-0.07-0.06l-0.03-0.04c-0.24-0.32-0.7-0.69-1.1-0.97c-0.39-0.26-0.9-0.42-1.39-0.56
		c-1-0.26-2.04-0.43-3.07-0.51c-1.02-0.06-2.04,0.11-2.94,0.58c-0.9,0.42-1.53,1.28-1.94,2.2c-0.05,0.11-0.09,0.23-0.12,0.33
		c-0.01,0.06-0.01,0.05-0.01,0.06c0,0.02,0.02,0.05,0.05,0.08c0.12,0.14,0.34,0.29,0.56,0.41l0.34,0.19
		c0.06,0.03,0.09,0.03,0.13,0.05l0.18,0.04l0.76,0.15c1.03,0.19,2.08,0.35,3.12,0.51c1.04,0.16,2.09,0.31,3.13,0.43
		c0.49,0.03,1.05,0.08,1.49-0.02c0.23-0.05,0.38-0.14,0.44-0.29c0.07-0.15,0.07-0.39,0.02-0.62c-0.05-0.23-0.13-0.46-0.24-0.68
		c-0.06-0.12-0.11-0.21-0.17-0.29c-0.07-0.09-0.16-0.18-0.25-0.26c-0.37-0.35-0.79-0.67-1.21-0.96c-0.21-0.14-0.45-0.3-0.61-0.35
		c-0.22-0.06-0.49-0.1-0.74-0.13c-0.52-0.07-1.04-0.13-1.56-0.18l-0.79-0.07l-0.39-0.03c-0.09,0-0.22,0.01-0.35,0.02
		c-0.52,0.06-1.04,0.13-1.56,0.21c-1.05,0.17-2.05,0.35-3.09,0.65c-0.54,0.12-1.09,0.17-1.65,0.14c-0.28-0.01-0.56-0.04-0.85-0.13
		c-0.34-0.11-0.54-0.31-0.76-0.49c-0.21-0.21-0.4-0.35-0.58-0.71c-0.01-0.05-0.07-0.14,0.01-0.32c0.11-0.18,0.26-0.18,0.32-0.18
		c0.13,0,0.2,0.03,0.28,0.05c0.15,0.05,0.22,0.07,0.33,0.09c0.43,0.06,0.9-0.14,1.32-0.4c0.12-0.07,0.19-0.13,0.36-0.22
		c0.03-0.01,0.15-0.13,0.23-0.21l0.55-0.56l1.09-1.16c0.83-0.78,1.86-1.23,2.91-1.52c1.06-0.27,2.13-0.42,3.24-0.34
		c0.55,0.05,1.09,0.17,1.61,0.35l0.38,0.14l0.08,0.03l0.1,0.03c0.14,0.05,0.2,0.11,0.26,0.17c0.24,0.23,0.4,0.46,0.51,0.77
		c0.05,0.15,0.11,0.34,0.02,0.59c-0.09,0.2-0.24,0.33-0.39,0.41c-0.3,0.16-0.6,0.2-0.89,0.22c-0.29,0.02-0.59-0.02-0.88-0.1
		c-0.28-0.09-0.61-0.23-0.8-0.61c-0.12-0.2-0.03-0.53,0.1-0.65c0.12-0.15,0.24-0.24,0.36-0.32l0.34-0.21
		c0.07-0.05,0.05-0.03,0.11-0.09c0.11-0.09,0.16-0.11,0.22-0.15c0.47-0.27,0.94-0.51,1.41-0.76l2.81-1.47
		c0.86-0.47,1.61-1.25,2.07-2.12c0.46-0.88,0.59-1.92,0.36-2.88c-0.2-0.97-0.92-1.71-1.86-2.06c-0.46-0.18-0.96-0.29-1.48-0.37
		c-0.49-0.1-0.99-0.07-1.51-0.04c-1.02,0.09-2.12,0.22-3.06,0.46c-1.94,0.76-3.88,1.66-5.91,2.34c-2.18,0.8-4.29,0.3-6.43,0.09
		c-1.09-0.23-2.08-0.68-3.03-1.17c-0.95-0.49-1.87-1.04-2.76-1.62c-1.79-1.15-3.5-2.42-5.2-3.66c-0.83-0.61-1.76-1.08-2.72-1.45
		c-0.48-0.17-0.98-0.33-1.45-0.36c-0.42-0.04-0.9,0.17-1.29,0.44c-0.39,0.27-0.7,0.65-0.84,1.08c-0.14,0.44-0.1,0.88,0.05,1.4
		c0.21,1.02,0.52,2.02,0.98,2.93c0.45,0.91,1.08,1.74,1.88,2.36c0.8,0.63,1.73,1.08,2.71,1.41c0.98,0.33,2,0.65,3.01,0.84
		c1.02,0.19,2.07,0.31,3.12,0.39c2.1,0.18,4.21,0.23,6.32,0.25c2.1,0,4.23,0,6.3-0.21c2.05-0.25,4.18-0.68,6.04-1.45
		c0.41-0.2,0.68-0.55,0.65-0.95c0-0.1-0.02-0.2-0.06-0.28c-0.03-0.06,0.01-0.02-0.09-0.06c-0.17-0.05-0.43-0.05-0.68-0.04
		c-0.51,0.03-1.04,0.09-1.56,0.15c-0.5,0.04-0.97,0.18-1.4,0.4c-0.43,0.22-0.81,0.54-1.1,0.92c-0.26,0.36-0.52,0.89-0.4,1.16
		c0.12,0.34,0.55,0.66,0.98,0.89c0.44,0.24,0.92,0.42,1.41,0.58c0.49,0.15,1.01,0.3,1.48,0.35c0.49,0.05,1,0.04,1.51-0.02
		c0.51-0.06,1.02-0.16,1.52-0.28c0.25-0.06,0.5-0.13,0.75-0.21l0.37-0.12l0.18-0.06c0.06-0.02,0.04-0.02,0.1-0.05
		c0.67-0.58,1.29-1.57,1.62-2.45c0.09-0.2,0.08-0.5,0.08-0.45c0.11,0.03-0.17-0.01-0.37,0.1c-0.44,0.17-0.83,0.46-1.12,0.84
		c-0.58,0.75-0.79,1.79-0.71,2.78c0.04,0.49,0.15,0.99,0.33,1.44c0.16,0.42,0.49,0.74,0.91,0.98c0.85,0.47,1.9,0.64,2.92,0.79
		c1.03,0.14,2.09,0.21,3.14,0.29c4.19,0.57,8.34-0.58,12.19-2.18l0.04-0.02l0.01,0c0.94-0.3,1.92-0.9,2.24-1.78
		c0.16-0.44,0.13-0.92-0.02-1.39c-0.12-0.44-0.48-0.81-0.86-1.16c-1.61-1.37-3.61-2.34-5.56-3.27c-3.98-1.81-8.05-3.38-12.33-4.3
		c-4.25-1-8.57-1.69-12.93-1.73c-1.09-0.02-2.18,0-3.28,0c-1.11-0.02-2.14,0.04-3.22,0.22c-2.13,0.36-4.23,0.97-6.29,1.68
		c-4.03,1.61-8.41,3-12.93,2.64c-1.15-0.12-2.31-0.63-3.14-1.48c-0.84-0.84-1.36-1.92-1.66-3.01c-0.3-1.1-0.4-2.25-0.33-3.38
		c0.04-0.57,0.12-1.14,0.31-1.71c0.2-0.53,0.39-1.05,0.62-1.56c0.88-2.04,2.05-3.96,3.47-5.68c0.71-0.86,1.48-1.67,2.3-2.42
		c0.4-0.38,0.86-0.72,1.2-1.08c0.37-0.39,0.73-0.79,1.06-1.21c0.31-0.39,0.66-0.91,0.7-1.22c-0.01-0.07,0.01,0,0.03,0
		c-0.01-0.01-0.11-0.03-0.21-0.02c-0.22,0.02-0.47,0.06-0.71,0.14c-0.98,0.31-1.93,0.87-2.83,1.44c-1.82,1.17-3.5,2.56-5.1,4.03
		c-1.58,1.5-3.14,3.02-4.31,4.83c-1.18,1.81-2.16,3.76-2.98,5.77c-0.41,1.01-0.78,2.03-1.09,3.06c-0.07,0.26-0.15,0.52-0.2,0.77
		c-0.06,0.27-0.14,0.57-0.24,0.83c-0.2,0.54-0.47,1.05-0.77,1.53c-0.63,0.95-1.3,1.85-2.35,2.51c-0.14,0.08-0.29,0.15-0.51,0.18
		c-0.09,0.02-0.3-0.01-0.33-0.03l-0.2-0.05c-0.14-0.04-0.32-0.09-0.51-0.23c-0.18-0.15-0.27-0.36-0.32-0.52
		c-0.16-0.64-0.13-1.17-0.16-1.73c-0.01-1.19,0.33-2.27,0.67-3.33c0.36-1.05,0.78-2.08,1.25-3.08c0.95-1.99,2.05-3.95,3.5-5.64
		c2.78-3.4,5.86-6.63,9.5-9.17c0.91-0.63,1.85-1.21,2.79-1.78c0.47-0.28,0.88-0.58,1.4-0.88c0.5-0.28,1.02-0.5,1.55-0.7
		c1.05-0.38,2.13-0.67,3.22-0.88c0.55-0.11,1.1-0.19,1.66-0.25c0.28-0.03,0.56-0.05,0.86-0.04c0.28,0,0.69,0.03,1,0.34
		c0.3,0.31,0.32,0.7,0.33,1c-0.01,0.31-0.06,0.6-0.12,0.88l-0.2,0.81c-0.07,0.3-0.22,0.59-0.35,0.84c-0.56,0.98-1.14,1.87-1.63,2.84
		c-0.5,0.96-0.93,1.95-1.31,2.97c-0.39,1.02-0.7,2.03-0.8,3.09c-0.24,2.08,0.51,4.31,2.2,5.53c0.21,0.14,0.42,0.29,0.65,0.39
		c0.22,0.12,0.42,0.17,0.68,0.21c0.5,0.07,1.03,0.04,1.56-0.01c1.06-0.11,2.13-0.34,3.18-0.6c1.06-0.26,2.11-0.56,3.15-0.88
		l1.56-0.49c0.52-0.16,1.03-0.37,1.63-0.46c2.24-0.28,4.42-0.22,6.63-0.2l0.03,0c7.42,0.82,14.86,2.01,21.93,4.58
		c1.76,0.66,3.48,1.42,5.13,2.33c0.82,0.46,1.63,0.96,2.4,1.47c0.81,0.49,1.55,1.14,2.21,1.81c0.67,0.66,1.29,1.37,1.95,1.98
		c0.17,0.15,0.34,0.29,0.51,0.39c0.18,0.12,0.31,0.12,0.3,0.09c0.23-0.24,0.49-0.67,0.66-1.06c0.73-1.65,1.02-3.51,1.26-5.33
		c0.2-1.83,0.37-3.7,0.29-5.53c-0.08-1.83-0.43-3.65-0.99-5.41c-0.55-1.76-1.31-3.45-2.23-5.05c-0.92-1.61-1.94-3.14-3.24-4.45
		c-2.55-2.68-5.55-4.92-8.86-6.58c-3.31-1.66-6.89-2.74-10.54-3.37c-1.83-0.32-3.67-0.52-5.53-0.67c-1.85-0.17-3.69-0.2-5.54-0.07
		c-3.69,0.27-7.36,1.01-10.93,2.02c-0.9,0.26-1.78,0.5-2.59,0.91c-0.81,0.4-1.59,0.9-2.28,1.49c-0.68,0.59-1.35,1.27-1.66,2.04
		c-0.16,0.4-0.07,0.72,0.23,0.77c0.33,0.06,0.78-0.11,1.15-0.31c0.77-0.42,1.45-1.06,1.96-1.78c0.51-0.72,0.85-1.59,0.77-2.44
		c-0.05-0.87-0.66-1.53-1.5-1.81c-0.83-0.29-1.75-0.33-2.66-0.28C41.09,1.56,37.6,3.04,34.36,4.8c-0.82,0.44-1.62,0.91-2.43,1.38
		c-0.83,0.47-1.62,0.9-2.4,1.41c-1.56,0.99-2.98,2.19-4.33,3.45c-2.7,2.54-5.02,5.48-7.01,8.6c-0.97,1.58-1.94,3.17-2.34,4.96
		c-0.44,1.79-0.68,3.64-0.82,5.48L14.55,30c0.69-1.92,1.28-3.84,2.17-5.72c0.93-1.82,2.01-3.55,3.23-5.2
		c1.22-1.64,2.6-3.16,4.14-4.51c1.55-1.34,3.2-2.56,5.12-3.4l-0.02,0.01c1.67-0.8,3.36-1.57,5.13-2.17c1.76-0.59,3.59-1.09,5.49-1.1
		c0.13,0,0.23,0.1,0.23,0.23c0,0.11-0.08,0.2-0.18,0.22l-0.01,0c-1.23,0.28-2.43,0.83-3.6,1.36c-1.18,0.55-2.33,1.15-3.46,1.78
		c-2.28,1.25-4.45,2.68-6.35,4.45c-1.92,1.74-3.62,3.72-5.12,5.83c-1.5,2.1-2.72,4.43-3.97,6.7c-2.42,4.57-3.07,10.02-2.16,15.06
		c0.15,0.62,0.36,1.23,0.69,1.75c0.33,0.52,0.81,0.93,1.4,1.02c0.58,0.11,1.21-0.06,1.78-0.31c0.57-0.22,0.96-0.71,1.07-1.3
		c0.21-1.2-0.26-2.49-0.83-3.61c-0.59-1.13-1.36-2.19-2.31-3.03c-0.47-0.42-1.01-0.78-1.58-0.95c-0.58-0.17-1.15,0.06-1.58,0.5
		c-0.86,0.89-1.3,2.16-1.64,3.39c-0.64,2.49-0.87,5.12-0.67,7.69c0.32,2.56,0.93,5.11,1.86,7.52c0.94,2.4,2.25,4.7,4.09,6.51
		c1.81,1.8,4.21,3.12,6.76,3.32c0.16,0.01,0.32,0.01,0.46,0c0.11,0,0.29-0.08,0.43-0.12c0.31-0.08,0.6-0.22,0.89-0.34
		c0.58-0.26,1.13-0.6,1.66-0.96c1.04-0.75,1.96-1.67,2.78-2.67c1.64-2.01,2.91-4.3,3.95-6.67c0.51-1.2,0.99-2.4,1.24-3.67
		c0.26-1.26,0.38-2.56,0.37-3.85c-0.03-2.58-0.54-5.19-1.69-7.5c-0.58-1.15-1.34-2.21-2.29-3.08c-0.94-0.87-2.05-1.6-3.31-1.83
		c-1.26-0.24-2.55,0.12-3.66,0.75c-1.14,0.6-2.11,1.5-2.7,2.64c-0.6,1.13-0.86,2.43-0.89,3.71c-0.01,1.28,0.16,2.6,0.65,3.78
		c0.49,1.2,1.04,2.39,1.68,3.51c0.66,1.11,1.4,2.2,2.42,2.99c0.51,0.38,1.1,0.68,1.72,0.71c0.62,0.04,1.25-0.22,1.7-0.65
		c0.86-0.94,1.51-2.11,1.84-3.35c0.68-2.52-0.14-5.21-1.53-7.37c-0.35-0.54-0.73-1.08-1.16-1.55c-0.42-0.47-1.04-0.77-1.67-0.67
		c-1.27,0.18-2.26,1.23-2.92,2.3c-1.32,2.24-1.65,4.93-1.71,7.5c-0.02,1.3,0.04,2.6,0.2,3.89c0.21,1.28,0.51,2.55,0.79,3.83
		L25.18,65c0.51,2.55,0.73,5.23,0.07,7.77c-0.31,1.27-0.7,2.52-1.29,3.69c-0.56,1.18-1.41,2.23-2.48,2.99
		c-1.08,0.71-2.12,1.54-3.37,1.97c-1.21,0.48-2.47,0.85-3.72,1.21c-1.26,0.34-2.52,0.68-3.8,0.92c-1.27,0.29-2.52,0.66-3.74,1.13
		C4.41,85.62,2.09,86.86,0,88.42z"/>
</g>
</svg>
