<?xml version="1.0" encoding="utf-8"?>
<!-- Generator: Adobe Illustrator 25.4.1, SVG Export Plug-In . SVG Version: 6.00 Build 0)  -->
<svg version="1.1" id="Layer_2" xmlns="http://www.w3.org/2000/svg" xmlns:xlink="http://www.w3.org/1999/xlink" x="0px" y="0px"
	 viewBox="0 0 100 103.94" style="enable-background:new 0 0 100 103.94;" xml:space="preserve">
<style type="text/css">
	.st0{fill:none;}
</style>
<path class="st0" d="M0,88.42c0,0,4.85-3.88,11.54-5.08c0,0,6.45-1.46,8.3-2.81s4-1.87,5.46-8.12c0.86-3.67-0.3-7.97-0.43-8.53
	s-2.11-9.1-2.26-10.23c-0.15-1.13-1.01-8.66,2.11-12.4c1.04-1.25,2.85-2.28,4.19-0.69c1.35,1.58,5.14,6.99,0.97,12.09
	c-0.91,1.11-4.16,2.9-7.98-6.53c-0.77-1.89-1.47-7.28,2.48-9.79c2.08-1.33,4.78-2.22,8.1,1.12s4.5,9.91,3.03,15.24
	c-0.43,1.55-4.18,11.77-10.72,13.51c-0.72,0.19-10.75-0.11-13.4-16.69c-0.62-3.89,0.4-11.83,3.18-12.61
	c2.79-0.78,8.15,7.61,4.66,9.25c-5.9,2.76-4.58-9.25-4.41-10.51c0.67-4.95,2.92-8.29,3.72-9.76c0.8-1.47,4.12-7.75,10.43-12.27
	c2.81-2.02,8.51-4.99,10.83-5.46c-3.76-0.01-8.5,2.3-10.51,3.25c0,0-7.2,2.76-12.48,13.23c-0.51,1.02-2.03,5.46-2.03,5.46
	s0.27-4.34,1.27-6.97c1-2.63,6.93-12.45,15.22-16.84c1.22-0.65,4.98-3.1,9.09-4.37c3.16-0.97,8.24-1.67,8.8,1.23s-3.52,5.9-4.5,4.92
	S46.68,3.9,50,2.85s10.63-2.92,16.87-2.43S84.73,1.9,93.78,12.1c0.9,1.02,5.75,7.35,5.75,14.99c0,1.61-0.29,9.07-2.29,11.34
	c-0.73,0.83-2.9-2.63-5.08-4.01c-2.18-1.38-8.64-6.33-29.63-8.51c0,0-5.66-0.13-7.11,0.31c-1.45,0.45-9.13,3.14-11.29,2.16
	c-2.16-0.98-4.23-4.03-2.65-8.64c1.58-4.61,3.32-6.39,3.56-7.4s0.71-2.43-0.29-2.65c-1-0.22-5.86,0.62-7.98,2.09
	s-6.46,3.19-13.54,11.99c-2.48,3.08-4.95,8.91-4.9,11.14c0.04,2.23,0.18,2.16,0.98,2.36c0.8,0.2,3.23-2.52,3.7-4.68
	c0.47-2.16,2.81-8.57,6.17-12.18c4.34-4.68,9.16-8,11.25-8.24s-0.93,2.88-1.31,3.25c-0.62,0.61-4.92,3.72-7.31,10.34
	c-0.81,2.26-0.48,8.83,4.75,9.2s10.87-2.05,10.87-2.05s6.42-2.56,10.56-2.52c4.14,0.04,9.22-0.45,20.36,2.61
	c2.97,0.81,14.55,5.16,15.57,7.97c1.02,2.81-2.41,3.75-2.41,3.75s-5.9,2.65-10.65,2.32s-8.16-0.45-8.95-2.34
	c-0.79-1.89-0.44-4.7,1.67-5.52s-0.41,3.19-1.17,3.45c-0.76,0.27-3.21,1.05-4.97,0.65c-1.76-0.4-4.01-1.27-3.7-2.47
	c0.31-1.2,1.56-2.23,3.1-2.38c1.54-0.16,2.53-0.31,2.72,0.09s0.22,1.27-0.84,1.74c-1.06,0.47-4.02,1.31-7.08,1.51
	c-3.05,0.2-12.22,0.26-15.95-0.8c-3.73-1.06-6.63-2.09-7.75-7.95c-0.33-1.72,1.23-2.67,2.12-2.83c0.89-0.16,2.94,0.67,4.32,1.58
	s8.13,6.35,11.65,6.73s2.87,0.28,4.37,0.23s6.95-2.61,7.64-2.77c0.69-0.16,3.24-0.57,4.3-0.4c1.23,0.2,3.68,0.55,3.88,3.36
	c0.2,2.81-2.16,4.28-2.29,4.41c-0.13,0.13-4.63,2.38-4.79,2.56c-0.16,0.18-1,0.49-0.85,0.91c0.16,0.42,0.84,0.58,1.28,0.58
	s1-0.09,1.17-0.45c0.18-0.35-0.4-1.13-0.65-1.18c-0.25-0.04-1.33-0.62-2.98-0.53c-3.36,0.18-4.84,1.6-5.06,1.83
	c-0.22,0.22-1.69,1.85-1.89,1.94c-0.2,0.09-1.2,0.94-2.16,0.58c-0.96-0.36,0.25,0.87,0.71,1.07c0.47,0.2,1.72,0.27,2.9-0.09
	c1.18-0.36,4.28-0.8,4.61-0.78s3.21,0.27,3.68,0.47c0.47,0.2,1.93,1.28,2.2,1.77c0.34,0.6,0.6,1.51,0.18,1.92
	c-0.42,0.41-1.46,0.28-1.85,0.28s-7.17-0.98-7.61-1.23s-1.16-0.61-1.11-0.97c0.04-0.36,0.74-1.9,1.83-2.57
	c1.09-0.67,2.23-0.89,3.43-0.82c1.2,0.07,3.72,0.47,4.66,1.14c0.94,0.67,1.14,1.02,1.14,1.02s0.29-0.42,0.2-1.09
	c-0.09-0.67-0.79-2.14-0.6-2.07c0.71,0.25,1.14,0.82,1.36,1.09s1.34,2.38,1.05,4.3c-0.29,1.92-0.45,3.05-2.21,4.95
	c-0.33,0.35-2.14,0.69-3.14,0.16c-1-0.54-1.23-0.85-1.02-0.99s0.95-0.61,2.04-0.34s1.9,0.6,2.63,1.65c0.74,1.05,1.76,2.61,0.82,6.75
	c-0.19,0.85-1.69,2.92-3.23,3.21s-3.88,0.56-6.73-0.02s-7.34-1.39-15.86-4.3c-0.82-0.28-9.02-3.3-10.85-5.86
	c-0.53-0.75,0.27,0.8,0.6,1.23c0.33,0.42,2.87,3.32,9.71,5.84c0.78,0.29,7.44,3.01,16.98,4.92c0.6,0.12-1.16,0.21-1.45,0.67
	c-0.29,0.45-2.18,1.16-2.43,5.1c-0.25,3.94,0.64,11.26-0.26,13.63c-0.9,2.37-2.31,5.82-4.82,6.84c-2.51,1.03-4.88,3.1-14.52,2.6
	c-2.43-0.12-11.67-1.82-16.31-6.84c-0.53-0.58-5.05-4.43-7.47-9.67c-0.59-1.29-1.73-5.99,0.86-6.43c2.58-0.43,2.29,2.87,2.29,2.87
	s0.58,6.67,1.94,9.3c1.36,2.63,3.62,9.3,10.59,12.86c5.44,2.78,11.55,3.16,17.38,2.18s12.43-3.81,15.33-9.01
	c0.65-1.17,1.71-4.07,1.42-6.21s-1.31-2.8-2.08-3.02c-2.13-0.63-3.02,0.8-2.16,2.07c0.61,0.91,3.57,2.52,5.95,2.94
	s7.66-0.93,16.83,1.97c2.44,0.77,6.07,1.91,11.96,9.86"/>
</svg>
