<?xml version="1.0" encoding="utf-8"?>
<!-- Generator: Adobe Illustrator 25.4.1, SVG Export Plug-In . SVG Version: 6.00 Build 0)  -->
<svg version="1.1" id="Layer_2_copy" xmlns="http://www.w3.org/2000/svg" xmlns:xlink="http://www.w3.org/1999/xlink" x="0px"
	 y="0px" viewBox="0 0 100 103.94" style="enable-background:new 0 0 100 103.94;" xml:space="preserve">
<style type="text/css">
	.st0{fill:url(#SVGID_1_);}
</style>
<linearGradient id="SVGID_1_" gradientUnits="userSpaceOnUse" x1="14.5417" y1="102.959" x2="99.9431" y2="17.5575">
	<stop  offset="0" style="stop-color:#01979B"/>
	<stop  offset="0.4722" style="stop-color:#0D5E6B"/>
	<stop  offset="0.896" style="stop-color:#562E90"/>
</linearGradient>
<path class="st0" d="M99.96,26.72c-0.15-2.9-0.8-5.78-1.95-8.45c-0.57-1.33-1.26-2.62-2.05-3.83c-0.4-0.61-0.81-1.2-1.26-1.77
	c-0.44-0.57-0.9-1.13-1.39-1.67c-0.96-1.08-2.01-2.09-3.12-3.02c-1.11-0.93-2.29-1.77-3.52-2.53c-2.46-1.52-5.13-2.69-7.89-3.53
	c-2.76-0.84-5.6-1.37-8.46-1.66c-2.86-0.28-5.74-0.33-8.61-0.19c-0.72,0.03-1.43,0.08-2.15,0.13c-0.72,0.06-1.44,0.14-2.15,0.24
	c-1.43,0.2-2.84,0.49-4.23,0.88c-1.33,0.37-2.63,0.82-3.89,1.41c-0.01-0.03-0.03-0.06-0.04-0.08c-0.1-0.19-0.22-0.36-0.37-0.51
	c-0.15-0.15-0.31-0.28-0.48-0.38c-0.35-0.21-0.72-0.34-1.09-0.43c-0.37-0.08-0.75-0.12-1.12-0.14c-0.37-0.01-0.74,0-1.11,0.03
	c-0.73,0.06-1.45,0.18-2.16,0.34c-0.71,0.16-1.4,0.35-2.09,0.57c-0.69,0.22-1.37,0.46-2.04,0.71c-1.34,0.51-2.66,1.09-3.95,1.7
	c-1.29,0.62-2.57,1.26-3.83,1.96c-0.63,0.35-1.24,0.72-1.86,1.09l-0.45,0.29c-0.15,0.1-0.3,0.19-0.45,0.29
	c-0.3,0.2-0.6,0.4-0.89,0.6l-0.44,0.31L26.5,9.41l-0.22,0.16l-0.21,0.16l-0.43,0.33l-0.42,0.34c-0.14,0.11-0.28,0.22-0.42,0.34
	l-0.41,0.35l-0.41,0.35l-0.2,0.18l-0.2,0.18c-0.13,0.12-0.27,0.24-0.4,0.36c-0.26,0.25-0.52,0.5-0.77,0.75
	c-0.26,0.25-0.5,0.52-0.75,0.77l-0.36,0.4c-0.12,0.13-0.24,0.27-0.36,0.4c-0.47,0.54-0.93,1.1-1.36,1.68
	c-0.43,0.58-0.84,1.17-1.23,1.77c-0.78,1.21-1.46,2.49-2.03,3.82c-0.28,0.66-0.54,1.34-0.77,2.02c-0.22,0.69-0.42,1.38-0.58,2.09
	c-0.16,0.7-0.29,1.42-0.38,2.13c-0.04,0.36-0.08,0.72-0.1,1.08c-0.01,0.18-0.02,0.36-0.02,0.55c0,0.09,0,0.18,0,0.27
	c0,0.09,0,0.18,0.01,0.28c0.01,0.11,0.08,0.22,0.2,0.25c0.15,0.04,0.3-0.04,0.34-0.19c0.4-1.44,0.88-2.85,1.46-4.23
	c0.58-1.38,1.24-2.71,2.01-3.99c1.53-2.56,3.45-4.88,5.7-6.83c2.25-1.96,4.81-3.54,7.55-4.73c1.37-0.59,2.78-1.09,4.22-1.48
	c0.62-0.17,1.25-0.32,1.88-0.44c-1.66,0.62-3.27,1.35-4.83,2.2c-2.3,1.25-4.46,2.77-6.43,4.5c-1.96,1.73-3.74,3.69-5.28,5.8
	c-1.55,2.12-2.86,4.39-3.96,6.77c-0.55,1.19-1.04,2.4-1.47,3.64c-0.22,0.62-0.42,1.24-0.61,1.86c-0.05,0.16-0.09,0.31-0.14,0.47
	c-0.05,0.16-0.09,0.31-0.14,0.47c-0.09,0.32-0.17,0.64-0.24,0.96c-0.12,0.54-0.22,1.09-0.3,1.64c-0.3,0.11-0.56,0.28-0.79,0.48
	c-0.26,0.23-0.48,0.49-0.66,0.77c-0.19,0.28-0.35,0.57-0.49,0.87c-0.28,0.6-0.49,1.23-0.66,1.87c-0.17,0.64-0.29,1.28-0.4,1.93
	c-0.1,0.65-0.18,1.3-0.23,1.95c-0.12,1.31-0.1,2.62,0.02,3.93c0.12,1.3,0.34,2.6,0.66,3.87c0.31,1.27,0.72,2.52,1.22,3.73
	c0.5,1.21,1.09,2.38,1.79,3.5c0.17,0.28,0.36,0.55,0.54,0.82c0.19,0.27,0.38,0.53,0.58,0.79c0.4,0.52,0.83,1.02,1.29,1.49
	c0.91,0.94,1.94,1.78,3.08,2.44c0.56,0.34,1.17,0.61,1.81,0.79c0.64,0.18,1.31,0.25,1.97,0.2c0.33-0.02,0.66-0.08,0.98-0.16
	c0.07-0.02,0.14-0.04,0.21-0.06c0.17,0.94,0.3,1.88,0.34,2.83c0.03,0.65,0.01,1.3-0.09,1.94c-0.02,0.16-0.05,0.32-0.09,0.48
	c-0.03,0.16-0.07,0.32-0.1,0.48c-0.07,0.32-0.14,0.64-0.22,0.95c-0.16,0.63-0.33,1.26-0.54,1.88c-0.21,0.62-0.45,1.22-0.75,1.8
	c-0.29,0.58-0.64,1.13-1.05,1.64c-0.4,0.51-0.87,0.97-1.37,1.38c-0.28,0.23-0.58,0.44-0.88,0.64c-0.01-0.14-0.02-0.28-0.03-0.42
	c-0.04-0.53-0.1-1.06-0.21-1.59c-0.06-0.26-0.13-0.52-0.22-0.78c-0.09-0.25-0.2-0.5-0.35-0.74c-0.15-0.23-0.35-0.44-0.61-0.57
	c-0.13-0.07-0.27-0.11-0.41-0.12c-0.14-0.01-0.29,0-0.43,0.03c-0.14,0.03-0.27,0.08-0.4,0.15c-0.13,0.07-0.24,0.15-0.34,0.24
	c-0.21,0.18-0.38,0.39-0.54,0.62c-0.3,0.45-0.5,0.97-0.61,1.5c-0.1,0.53-0.12,1.08-0.07,1.61c0.05,0.54,0.16,1.06,0.32,1.58
	c0.03,0.09,0.06,0.18,0.09,0.27c-0.79,0.28-1.59,0.52-2.4,0.74c-0.63,0.17-1.26,0.33-1.89,0.48l-0.95,0.23
	c-0.16,0.04-0.32,0.08-0.47,0.12c-0.16,0.04-0.32,0.08-0.47,0.12c-1.26,0.34-2.5,0.73-3.72,1.19c-1.22,0.46-2.42,0.98-3.57,1.58
	c-0.58,0.3-1.15,0.62-1.7,0.96c-0.28,0.17-0.55,0.35-0.82,0.54C0.51,88.01,0.25,88.21,0,88.42l0,0c0.25-0.21,0.51-0.4,0.78-0.59
	c0.27-0.19,0.54-0.36,0.82-0.54c0.55-0.34,1.12-0.66,1.7-0.96c1.16-0.6,2.36-1.11,3.58-1.57c1.22-0.46,2.46-0.85,3.72-1.18
	c0.16-0.04,0.32-0.08,0.47-0.12c0.16-0.04,0.31-0.08,0.47-0.12l0.95-0.22c0.63-0.15,1.27-0.3,1.9-0.47c0.81-0.22,1.61-0.46,2.4-0.73
	c0.14,0.41,0.3,0.81,0.47,1.2c0.22,0.49,0.47,0.96,0.74,1.42c0.54,0.92,1.14,1.8,1.79,2.64c0.33,0.42,0.66,0.84,1,1.24
	c0.17,0.2,0.35,0.4,0.52,0.6c0.18,0.2,0.35,0.4,0.53,0.59l0.27,0.29l0.27,0.29c0.18,0.19,0.37,0.38,0.55,0.57
	c0.18,0.19,0.37,0.38,0.56,0.57c0.17,0.17,0.35,0.34,0.52,0.51c0.25,0.45,0.52,0.9,0.79,1.34c0.57,0.9,1.19,1.76,1.86,2.59
	c0.67,0.82,1.4,1.6,2.18,2.33c0.78,0.72,1.61,1.4,2.48,2c0.88,0.6,1.8,1.14,2.75,1.61c1.91,0.93,3.97,1.56,6.06,1.91
	c2.1,0.35,4.24,0.42,6.35,0.28c1.06-0.07,2.12-0.19,3.16-0.36c1.05-0.17,2.09-0.37,3.12-0.63c2.06-0.52,4.07-1.23,5.95-2.22
	c0.94-0.49,1.84-1.06,2.69-1.7c0.85-0.64,1.64-1.35,2.36-2.14c0.71-0.79,1.35-1.65,1.87-2.58c0.52-0.93,0.93-1.92,1.19-2.95
	c0.13-0.53,0.23-1.07,0.27-1.61c0.85,0.2,1.71,0.36,2.57,0.47c0.53,0.07,1.05,0.13,1.58,0.18l1.58,0.16
	c1.05,0.11,2.11,0.22,3.16,0.36c2.1,0.27,4.2,0.61,6.26,1.08c2.06,0.47,4.11,1.07,6.06,1.89c0.98,0.41,1.93,0.87,2.85,1.4
	c0.92,0.53,1.8,1.12,2.61,1.8c0.82,0.67,1.57,1.43,2.22,2.26c0.65,0.83,1.21,1.75,1.64,2.71l0,0c-0.43-0.97-0.99-1.88-1.64-2.71
	c-0.65-0.84-1.4-1.59-2.22-2.27c-0.82-0.68-1.7-1.27-2.61-1.81c-0.92-0.53-1.88-0.99-2.85-1.4c-1.96-0.82-4-1.42-6.06-1.9
	c-2.07-0.48-4.16-0.82-6.26-1.09c-1.05-0.14-2.1-0.25-3.16-0.36l-1.58-0.16c-0.53-0.05-1.05-0.11-1.58-0.18
	c-0.86-0.12-1.72-0.27-2.57-0.48c0.04-0.5,0.03-1-0.02-1.51c-0.06-0.53-0.18-1.05-0.39-1.55c-0.11-0.24-0.24-0.48-0.4-0.7
	c-0.16-0.22-0.35-0.41-0.57-0.56c-0.22-0.15-0.48-0.26-0.74-0.3c-0.27-0.04-0.54-0.02-0.8,0.04c-0.13,0.03-0.26,0.08-0.38,0.13
	c-0.12,0.05-0.25,0.1-0.36,0.16c-0.24,0.12-0.47,0.26-0.67,0.44c-0.2,0.18-0.37,0.4-0.44,0.67c-0.03,0.13-0.04,0.27-0.01,0.41
	c0.02,0.13,0.07,0.26,0.13,0.38c0.13,0.24,0.31,0.44,0.51,0.62c0.2,0.18,0.42,0.33,0.64,0.47c0.45,0.28,0.94,0.5,1.43,0.7
	c0.5,0.19,1,0.35,1.51,0.49c0.16,0.04,0.32,0.08,0.48,0.12c-0.04,0.54-0.14,1.08-0.27,1.61c-0.26,1.02-0.67,2.01-1.19,2.93
	c-0.52,0.92-1.15,1.78-1.86,2.56c-0.71,0.78-1.5,1.49-2.35,2.12c-0.85,0.63-1.75,1.19-2.68,1.68c-1.87,0.98-3.88,1.69-5.94,2.2
	c-1.03,0.26-2.07,0.46-3.11,0.62c-1.05,0.16-2.1,0.28-3.15,0.35c-2.11,0.14-4.24,0.06-6.32-0.29c-2.08-0.35-4.12-0.98-6.02-1.9
	c-0.95-0.46-1.86-1-2.73-1.6c-0.87-0.6-1.69-1.27-2.46-1.99c-0.77-0.72-1.49-1.5-2.16-2.32c-0.67-0.82-1.28-1.68-1.84-2.58
	c-0.18-0.29-0.36-0.58-0.53-0.87c1.46,1.32,3.07,2.48,4.79,3.44c0.46,0.26,0.94,0.5,1.42,0.74l0.36,0.17l0.18,0.08l0.18,0.08
	l0.37,0.16c0.12,0.05,0.25,0.1,0.37,0.15c0.98,0.41,1.99,0.76,3.02,1.05c0.13,0.04,0.26,0.07,0.38,0.11l0.39,0.1l0.39,0.1l0.19,0.05
	l0.19,0.04l0.39,0.09l0.39,0.08l0.2,0.04l0.2,0.04l0.39,0.07c1.05,0.18,2.11,0.31,3.17,0.38c2.12,0.15,4.26,0.09,6.37-0.19
	c0.53-0.07,1.05-0.16,1.58-0.25c0.52-0.1,1.04-0.21,1.56-0.34c1.03-0.26,2.05-0.59,3.04-1c0.49-0.21,0.98-0.44,1.44-0.71
	c0.47-0.26,0.92-0.56,1.34-0.9c0.84-0.67,1.57-1.49,2.14-2.4c0.57-0.91,1-1.91,1.3-2.94c0.3-1.03,0.5-2.08,0.62-3.15
	c0.12-1.06,0.17-2.13,0.18-3.19c0.01-1.06-0.02-2.13-0.05-3.19c-0.03-1.06-0.08-2.12-0.08-3.17c0-1.05,0.04-2.11,0.25-3.13
	c0.1-0.51,0.25-1.01,0.45-1.49c0.2-0.48,0.45-0.93,0.77-1.32c0.32-0.4,0.71-0.74,1.15-0.98c0.22-0.12,0.45-0.23,0.69-0.3
	c0.12-0.04,0.24-0.07,0.36-0.09c0.06-0.01,0.12-0.02,0.18-0.03c0.03,0,0.06-0.01,0.09-0.01l0.04,0l0.04,0l0.01,0
	c0.08,0,0.16-0.06,0.17-0.15c0.02-0.1-0.04-0.2-0.14-0.22c-1.28-0.28-2.57-0.57-3.85-0.88c-1.28-0.31-2.55-0.63-3.82-0.97
	c-2.54-0.68-5.06-1.44-7.53-2.32c-1.24-0.44-2.46-0.91-3.67-1.43c-0.6-0.26-1.2-0.53-1.79-0.81c-0.59-0.28-1.17-0.58-1.74-0.9
	c-0.57-0.32-1.13-0.65-1.67-1.01l-0.2-0.14l-0.2-0.14c-0.13-0.09-0.26-0.19-0.4-0.28c-0.26-0.2-0.52-0.39-0.76-0.61
	c-0.49-0.42-0.95-0.88-1.33-1.39c-0.06-0.08-0.11-0.16-0.17-0.24c0.15,0.15,0.31,0.3,0.47,0.44c0.57,0.49,1.18,0.91,1.81,1.3
	c1.26,0.77,2.59,1.42,3.93,2.01c1.34,0.59,2.71,1.13,4.09,1.63c1.38,0.5,2.77,0.96,4.17,1.4c2.8,0.87,5.63,1.64,8.48,2.3
	c0.71,0.16,1.43,0.33,2.15,0.46c0.72,0.14,1.45,0.25,2.18,0.34c0.73,0.09,1.47,0.15,2.21,0.16c0.74,0.01,1.49-0.02,2.23-0.13
	c0.37-0.05,0.74-0.13,1.11-0.23c0.36-0.1,0.72-0.24,1.07-0.41c0.35-0.17,0.68-0.38,0.98-0.63c0.3-0.25,0.57-0.54,0.79-0.86
	c0.22-0.32,0.39-0.68,0.52-1.04c0.03-0.09,0.06-0.18,0.09-0.27c0.03-0.09,0.05-0.18,0.08-0.27c0.05-0.18,0.1-0.36,0.14-0.54
	c0.17-0.73,0.29-1.47,0.3-2.23c0.02-0.75-0.06-1.52-0.28-2.25c-0.21-0.73-0.57-1.44-1.08-2.03c-0.06-0.07-0.12-0.14-0.18-0.2
	c0.23-0.19,0.43-0.41,0.61-0.64c0.48-0.62,0.8-1.32,1.02-2.05c0.22-0.73,0.33-1.48,0.37-2.23c0.03-0.75-0.01-1.51-0.17-2.26
	c-0.16-0.75-0.46-1.48-0.92-2.11c-0.23-0.32-0.5-0.6-0.81-0.85c-0.15-0.12-0.32-0.23-0.49-0.33c-0.09-0.05-0.18-0.1-0.27-0.14
	c-0.05-0.02-0.09-0.04-0.14-0.06c-0.02-0.01-0.05-0.02-0.07-0.03l-0.04-0.01c-0.01,0-0.02-0.01-0.05-0.01
	c-0.11-0.03-0.23,0-0.31,0.09c-0.12,0.13-0.11,0.32,0.02,0.44l0,0c0.21,0.19,0.38,0.42,0.52,0.67c0.14,0.25,0.23,0.52,0.29,0.8
	c0.06,0.28,0.08,0.58,0.07,0.87c0,0.03,0,0.05,0,0.08c-0.14-0.15-0.3-0.28-0.46-0.39c-0.39-0.28-0.81-0.49-1.24-0.66
	c-0.86-0.34-1.75-0.54-2.64-0.69c-0.9-0.14-1.84-0.18-2.76-0.01c-0.46,0.08-0.91,0.21-1.35,0.4c-0.43,0.19-0.84,0.43-1.22,0.72
	c-0.21,0.17-0.41,0.35-0.59,0.55c-0.06,0.02-0.12,0.03-0.19,0.05l-0.32,0.09c-0.1,0.03-0.21,0.06-0.31,0.08
	c-0.21,0.05-0.41,0.09-0.62,0.13c-0.42,0.07-0.83,0.09-1.24,0.06c-0.4-0.04-0.79-0.14-1.11-0.33c-0.07-0.04-0.14-0.09-0.2-0.13
	c0.07,0,0.13,0,0.2,0c0.2,0,0.41-0.02,0.61-0.07c0.2-0.05,0.4-0.12,0.59-0.22c0.19-0.1,0.35-0.21,0.51-0.33
	c0.15-0.12,0.29-0.26,0.43-0.39c0.26-0.26,0.5-0.53,0.74-0.78c0.24-0.25,0.49-0.48,0.75-0.69c0.26-0.21,0.54-0.4,0.83-0.56
	c0.15-0.08,0.3-0.16,0.45-0.23c0.16-0.07,0.32-0.14,0.48-0.2c0.32-0.13,0.65-0.24,0.98-0.34c0.66-0.2,1.34-0.33,2.02-0.39
	c0.54-0.05,1.08-0.05,1.61,0.02c-0.09,0.06-0.18,0.13-0.27,0.2c-0.08,0.06-0.16,0.13-0.24,0.22c-0.04,0.05-0.08,0.1-0.12,0.16
	c-0.04,0.07-0.08,0.14-0.11,0.26c-0.02,0.11-0.02,0.25,0.03,0.37c0.05,0.11,0.12,0.19,0.18,0.25c0.06,0.06,0.12,0.09,0.18,0.13
	c0.06,0.03,0.11,0.06,0.16,0.08c0.1,0.04,0.2,0.08,0.3,0.1c0.05,0.01,0.1,0.03,0.14,0.04c0.05,0.01,0.09,0.02,0.14,0.03
	c0.19,0.04,0.38,0.08,0.58,0.1c0.2,0.02,0.41,0.02,0.63-0.01c0.11-0.02,0.22-0.04,0.34-0.08c0.12-0.04,0.24-0.11,0.36-0.21
	c0.11-0.1,0.21-0.25,0.26-0.41c0.05-0.16,0.04-0.33,0-0.46c-0.03-0.14-0.09-0.26-0.15-0.36c-0.06-0.1-0.13-0.19-0.21-0.27
	c-0.07-0.08-0.15-0.15-0.24-0.22c-0.02-0.02-0.04-0.03-0.07-0.05c0.2-0.1,0.39-0.21,0.59-0.31c0.14-0.07,0.28-0.15,0.42-0.22
	c0.27,0.29,0.57,0.53,0.88,0.74c0.33,0.22,0.68,0.4,1.02,0.55c0.7,0.31,1.42,0.51,2.14,0.68c0.71,0.16,1.43,0.29,2.16,0.38
	c1.45,0.19,2.91,0.25,4.37,0.18c1.46-0.06,2.91-0.25,4.33-0.55c1.43-0.3,2.83-0.72,4.19-1.29c0.68-0.28,1.34-0.61,1.99-0.99
	c0.32-0.19,0.64-0.4,0.94-0.65c0.15-0.12,0.3-0.25,0.45-0.39c0.15-0.14,0.29-0.29,0.42-0.47c0.07-0.09,0.13-0.19,0.19-0.29
	c0.06-0.1,0.11-0.23,0.15-0.35c0.08-0.24,0.11-0.5,0.09-0.74c-0.01-0.24-0.07-0.48-0.15-0.69c-0.08-0.21-0.17-0.4-0.28-0.58
	c-0.22-0.36-0.47-0.66-0.74-0.94c-0.27-0.28-0.55-0.53-0.84-0.77c-0.58-0.48-1.19-0.89-1.81-1.28c-0.62-0.39-1.26-0.74-1.9-1.08
	c-1.29-0.67-2.6-1.26-3.93-1.82c-1.33-0.55-2.67-1.06-4.03-1.54c-1.36-0.48-2.74-0.91-4.13-1.28c-1.39-0.38-2.79-0.7-4.21-0.98
	c-2.82-0.56-5.68-0.95-8.56-1.14c-1.44-0.09-2.88-0.13-4.33-0.1c-1.45,0.03-2.9,0.13-4.34,0.34c-0.36,0.05-0.72,0.11-1.08,0.18
	c-0.36,0.07-0.72,0.15-1.08,0.23c-0.71,0.17-1.41,0.37-2.1,0.58c-1.38,0.42-2.73,0.89-4.08,1.35c-0.28,0.09-0.56,0.19-0.85,0.28
	c-0.09-0.06-0.17-0.13-0.26-0.19c-0.59-0.42-1.19-0.83-1.82-1.2c-0.63-0.37-1.28-0.71-1.98-0.99c-0.35-0.14-0.71-0.25-1.09-0.34
	c-0.38-0.08-0.77-0.14-1.19-0.12c-0.21,0.01-0.42,0.04-0.63,0.1c-0.21,0.06-0.42,0.14-0.61,0.25c-0.39,0.23-0.7,0.58-0.89,0.96
	c-0.2,0.38-0.3,0.78-0.36,1.18c-0.05,0.39-0.05,0.78-0.03,1.17c0.03,0.32,0.07,0.64,0.14,0.96c-0.2-0.01-0.39-0.02-0.59-0.05
	c-0.33-0.04-0.65-0.1-0.96-0.18c-0.31-0.08-0.61-0.19-0.9-0.32c-0.29-0.13-0.56-0.29-0.82-0.47c-0.25-0.18-0.49-0.39-0.71-0.62
	c-0.22-0.23-0.41-0.48-0.59-0.75c-0.09-0.13-0.17-0.28-0.25-0.42c-0.08-0.14-0.15-0.29-0.22-0.43c-0.27-0.59-0.44-1.22-0.51-1.86
	c-0.07-0.65-0.05-1.31,0.05-1.96c0.1-0.66,0.27-1.31,0.49-1.95c0.22-0.64,0.5-1.27,0.81-1.88c0.63-1.23,1.39-2.4,2.23-3.52
	c0.84-1.12,1.75-2.19,2.71-3.23l0.36-0.4l0.36-0.4l0.71-0.8c0.24-0.27,0.48-0.55,0.71-0.83c0.23-0.28,0.46-0.57,0.68-0.9
	c0.11-0.16,0.22-0.33,0.32-0.54c0.03-0.05,0.05-0.11,0.07-0.18c0.02-0.06,0.05-0.14,0.07-0.23c0.02-0.09,0.03-0.2,0.01-0.36
	c-0.02-0.15-0.12-0.38-0.29-0.52c-0.16-0.13-0.32-0.17-0.43-0.19c-0.11-0.02-0.2-0.02-0.28-0.01c-0.15,0.01-0.27,0.04-0.38,0.06
	c-0.22,0.06-0.41,0.12-0.59,0.19c-0.36,0.14-0.7,0.3-1.03,0.47c-0.33,0.16-0.65,0.34-0.97,0.51c-0.64,0.35-1.26,0.71-1.87,1.08
	c-0.62,0.37-1.24,0.77-1.83,1.19c-0.6,0.42-1.18,0.87-1.74,1.33c-0.56,0.47-1.1,0.95-1.63,1.46c-1.05,1.01-2.02,2.1-2.92,3.25
	c-0.9,1.15-1.71,2.36-2.45,3.61c-0.37,0.63-0.71,1.27-1.03,1.92c-0.32,0.65-0.62,1.32-0.9,2c-0.27,0.68-0.52,1.37-0.72,2.08
	c-0.03,0.09-0.05,0.18-0.07,0.27l-0.07,0.27c-0.04,0.17-0.09,0.33-0.13,0.5c-0.09,0.33-0.2,0.66-0.31,0.98
	c-0.23,0.65-0.49,1.28-0.81,1.88c-0.16,0.3-0.33,0.59-0.51,0.86c-0.19,0.27-0.39,0.52-0.6,0.74c-0.11,0.11-0.22,0.2-0.33,0.28
	c-0.06,0.04-0.11,0.07-0.16,0.1c-0.05,0.03-0.11,0.05-0.16,0.07c-0.1,0.03-0.18,0.04-0.24,0.03c-0.07-0.01-0.13-0.03-0.2-0.09
	c-0.02-0.01-0.04-0.03-0.06-0.05c-0.02-0.02-0.01-0.01-0.02-0.02c-0.01-0.01-0.03-0.05-0.05-0.09c-0.04-0.09-0.07-0.22-0.08-0.36
	c-0.03-0.28-0.02-0.61,0.01-0.94c0.07-0.66,0.22-1.33,0.41-1.99c0.19-0.66,0.42-1.32,0.67-1.97c0.51-1.3,1.12-2.56,1.81-3.78
	c1.37-2.44,3.05-4.73,4.97-6.77c0.24-0.26,0.48-0.5,0.74-0.75c0.25-0.25,0.5-0.5,0.75-0.74c0.51-0.49,1.02-0.97,1.55-1.45
	c1.05-0.94,2.13-1.85,3.26-2.69c0.56-0.42,1.14-0.83,1.72-1.22c0.58-0.39,1.18-0.76,1.79-1.11c0.61-0.35,1.23-0.67,1.86-0.97
	c0.63-0.29,1.27-0.56,1.92-0.78c0.65-0.22,1.32-0.4,1.98-0.51c0.33-0.06,0.66-0.09,0.99-0.1c0.33-0.01,0.65,0,0.94,0.05
	c0.15,0.03,0.29,0.06,0.4,0.11c0.06,0.02,0.11,0.05,0.15,0.08c0.02,0.01,0.04,0.03,0.04,0.03c0.01,0,0.01,0.01,0.01,0.01
	c0.01,0.01,0.01,0.02,0.02,0.05c0.01,0.03,0.01,0.07,0.02,0.13c0,0.11-0.02,0.25-0.05,0.39c-0.07,0.29-0.19,0.6-0.32,0.91
	c-0.14,0.31-0.29,0.62-0.45,0.93c-0.32,0.62-0.66,1.24-1.01,1.87c-0.34,0.63-0.69,1.26-1.01,1.91c-0.32,0.65-0.63,1.31-0.9,2.01
	c-0.13,0.35-0.25,0.7-0.34,1.07c-0.02,0.09-0.05,0.19-0.07,0.28l-0.06,0.27l-0.05,0.27l-0.05,0.27c-0.12,0.73-0.18,1.48-0.16,2.24
	c0.01,0.38,0.04,0.76,0.1,1.13c0.06,0.38,0.14,0.75,0.26,1.12c0.12,0.37,0.27,0.73,0.46,1.08c0.19,0.35,0.42,0.68,0.69,0.97
	c0.07,0.08,0.14,0.15,0.21,0.22c0.07,0.07,0.14,0.14,0.22,0.2c0.15,0.13,0.31,0.25,0.48,0.37c0.17,0.11,0.34,0.21,0.52,0.3
	c0.18,0.09,0.36,0.17,0.55,0.23c0.37,0.14,0.76,0.22,1.15,0.28c0.39,0.05,0.77,0.07,1.15,0.06c0.76-0.02,1.51-0.15,2.23-0.33
	c0.36-0.09,0.72-0.2,1.06-0.32l0.51-0.18c0.17-0.06,0.33-0.12,0.5-0.18c0.66-0.23,1.33-0.44,2.01-0.62
	c0.68-0.18,1.36-0.34,2.05-0.47c0.69-0.13,1.38-0.24,2.08-0.31c0.7-0.08,1.4-0.13,2.1-0.16c0.35-0.02,0.7-0.02,1.05-0.03
	c0.18,0,0.35,0,0.53,0c0.18,0,0.35,0,0.53,0c2.82,0.04,5.64,0.36,8.44,0.82c1.4,0.23,2.79,0.49,4.18,0.79
	c0.35,0.07,0.69,0.15,1.04,0.22l0.52,0.11l0.52,0.12c0.35,0.08,0.69,0.16,1.04,0.24l1.04,0.25c1.38,0.33,2.74,0.71,4.09,1.14
	c1.35,0.43,2.68,0.9,3.98,1.44c1.3,0.54,2.58,1.14,3.81,1.82c1.23,0.68,2.42,1.44,3.54,2.28c0.56,0.42,1.1,0.87,1.62,1.34
	c0.26,0.23,0.52,0.47,0.78,0.72l0.39,0.37c0.13,0.12,0.27,0.25,0.41,0.37c0.07,0.06,0.15,0.13,0.24,0.19
	c0.09,0.06,0.19,0.13,0.34,0.19c0.08,0.03,0.17,0.05,0.3,0.05c0.12,0,0.27-0.05,0.37-0.11c0.1-0.07,0.17-0.14,0.21-0.21
	c0.04-0.06,0.07-0.1,0.09-0.15c0.1-0.18,0.18-0.35,0.26-0.52c0.08-0.17,0.15-0.34,0.22-0.51c0.28-0.68,0.5-1.37,0.7-2.07
	c0.4-1.4,0.67-2.83,0.83-4.27C100,29.63,100.04,28.17,99.96,26.72z M66.6,89.5c-0.51-0.14-1.02-0.3-1.51-0.49
	c-0.49-0.19-0.97-0.42-1.42-0.69c-0.22-0.14-0.44-0.29-0.63-0.47c-0.19-0.18-0.37-0.37-0.49-0.6c-0.06-0.11-0.11-0.24-0.13-0.36
	c-0.02-0.13-0.02-0.26,0.01-0.38c0.06-0.25,0.22-0.47,0.42-0.64c0.19-0.17,0.42-0.31,0.66-0.43c0.12-0.06,0.24-0.11,0.36-0.16
	c0.12-0.05,0.25-0.09,0.37-0.13c0.25-0.07,0.52-0.08,0.77-0.04c0.26,0.04,0.5,0.14,0.72,0.29c0.22,0.15,0.4,0.34,0.56,0.55
	c0.16,0.21,0.28,0.44,0.39,0.68c0.21,0.48,0.32,1,0.38,1.53c0.05,0.49,0.06,0.99,0.02,1.48C66.91,89.58,66.75,89.54,66.6,89.5z
	 M44.85,7.75c0-0.02,0-0.06,0.01-0.11c0.01-0.06,0.03-0.13,0.06-0.2c0.05-0.14,0.13-0.29,0.21-0.43c0.08-0.14,0.17-0.29,0.27-0.43
	c0.05-0.07,0.1-0.14,0.15-0.21l0.07-0.1l0.08-0.1c0.11-0.13,0.22-0.26,0.33-0.38c0.46-0.5,1.01-0.93,1.58-1.31
	c0.4-0.26,0.81-0.51,1.24-0.73c0,0.02,0,0.04,0,0.07c-0.02,0.31-0.1,0.62-0.23,0.92c-0.13,0.3-0.29,0.59-0.49,0.87
	c-0.1,0.14-0.2,0.27-0.31,0.4c-0.11,0.13-0.22,0.25-0.34,0.36c-0.24,0.23-0.51,0.44-0.79,0.63c-0.28,0.19-0.58,0.36-0.88,0.5
	c-0.15,0.07-0.31,0.13-0.46,0.18c-0.15,0.05-0.3,0.08-0.42,0.08C44.9,7.76,44.86,7.75,44.85,7.75z M14.58,39.14
	c0.01-0.69,0.06-1.38,0.16-2.06c0.25-0.05,0.5-0.06,0.76-0.01c0.3,0.06,0.59,0.18,0.86,0.33c0.27,0.16,0.52,0.35,0.75,0.57
	c0.46,0.44,0.84,0.96,1.17,1.5c0.33,0.55,0.6,1.13,0.82,1.74c0.22,0.6,0.38,1.23,0.46,1.86c0.08,0.63,0.08,1.28-0.07,1.88
	c-0.07,0.3-0.18,0.6-0.34,0.86c-0.08,0.13-0.17,0.26-0.27,0.37c-0.1,0.11-0.21,0.21-0.33,0.28c-0.12,0.07-0.26,0.12-0.4,0.15
	c-0.14,0.02-0.28,0.02-0.43-0.01c-0.29-0.06-0.56-0.21-0.8-0.4c-0.24-0.19-0.46-0.42-0.65-0.67c-0.19-0.25-0.36-0.52-0.51-0.8
	c-0.3-0.56-0.53-1.16-0.71-1.78C14.7,41.72,14.57,40.42,14.58,39.14z M16.9,81.54c-0.15-0.5-0.26-1.02-0.31-1.53
	c-0.05-0.52-0.04-1.04,0.06-1.55c0.1-0.51,0.28-1,0.57-1.43c0.14-0.21,0.31-0.41,0.5-0.58c0.1-0.08,0.2-0.16,0.3-0.22
	c0.11-0.06,0.23-0.1,0.35-0.13c0.24-0.06,0.49-0.04,0.71,0.07c0.22,0.11,0.39,0.3,0.53,0.51c0.14,0.21,0.25,0.45,0.33,0.69
	c0.09,0.24,0.15,0.5,0.21,0.75c0.11,0.51,0.17,1.04,0.21,1.56c0.01,0.17,0.02,0.35,0.03,0.52c-0.18,0.11-0.37,0.23-0.55,0.33
	c-0.57,0.32-1.16,0.6-1.76,0.85c-0.36,0.15-0.73,0.29-1.1,0.42C16.96,81.72,16.93,81.63,16.9,81.54z M23.12,90.59
	c-0.18-0.19-0.37-0.38-0.55-0.57l-0.27-0.29l-0.27-0.29c-0.18-0.19-0.35-0.39-0.53-0.59c-0.17-0.2-0.35-0.4-0.52-0.6
	c-0.34-0.4-0.67-0.81-1-1.23c-0.65-0.84-1.25-1.7-1.78-2.61c-0.27-0.46-0.51-0.92-0.73-1.4c-0.18-0.39-0.34-0.78-0.47-1.18
	c0.37-0.13,0.74-0.27,1.11-0.42c0.6-0.25,1.19-0.53,1.76-0.85c0.18-0.1,0.36-0.21,0.54-0.32c0,0.08,0.01,0.15,0.01,0.23
	c0.01,0.27,0.03,0.53,0.06,0.8c0.12,1.06,0.34,2.1,0.6,3.13c0.27,1.03,0.58,2.04,0.95,3.04c0.46,1.26,1.01,2.5,1.63,3.69
	C23.48,90.96,23.3,90.78,23.12,90.59z M62.06,51.92c0-0.02,0.01-0.03,0.01-0.05c0-0.02,0.01-0.05,0.02-0.07
	c0.01-0.05,0.03-0.09,0.05-0.14c0.03-0.09,0.07-0.19,0.12-0.28c0.09-0.18,0.19-0.36,0.31-0.53c0.04-0.06,0.09-0.12,0.14-0.18
	c0.74-0.19,1.51-0.32,2.27-0.39c0.86-0.08,1.73-0.09,2.59-0.01c0.43,0.04,0.86,0.1,1.27,0.19c0.42,0.09,0.83,0.21,1.21,0.36
	c0.39,0.16,0.75,0.35,1.07,0.6c0.16,0.12,0.3,0.26,0.43,0.41c0.06,0.07,0.12,0.15,0.17,0.23c0.05,0.08,0.1,0.16,0.14,0.25
	c0.02,0.04,0.04,0.09,0.06,0.13c0.02,0.05,0.04,0.1,0.05,0.15c0.04,0.1,0.07,0.2,0.1,0.3c0.06,0.2,0.1,0.39,0.1,0.56
	c0,0.08-0.01,0.16-0.02,0.21c-0.02,0.05-0.04,0.09-0.07,0.12c-0.03,0.03-0.09,0.06-0.16,0.08c-0.07,0.02-0.16,0.03-0.26,0.04
	c-0.19,0.01-0.4,0-0.61-0.02c-0.21-0.02-0.43-0.05-0.64-0.08l-1.32-0.21c-0.88-0.13-1.76-0.24-2.64-0.36
	c-0.44-0.06-0.88-0.12-1.31-0.18c-0.44-0.06-0.87-0.13-1.29-0.22c-0.42-0.09-0.85-0.19-1.22-0.34c-0.18-0.08-0.35-0.17-0.45-0.27
	c-0.05-0.05-0.08-0.1-0.1-0.15C62.05,52.04,62.05,51.99,62.06,51.92z M70.4,46.77c0,0.01-0.01,0.02-0.02,0.03
	c-0.04,0.04-0.15,0.08-0.28,0.1c-0.13,0.02-0.29,0.02-0.44,0c-0.16-0.01-0.32-0.04-0.48-0.08c-0.16-0.04-0.32-0.08-0.44-0.13
	c0,0,0,0-0.01,0c0.03-0.03,0.07-0.06,0.11-0.1c0.12-0.09,0.26-0.19,0.4-0.28c0.15-0.09,0.3-0.18,0.46-0.27
	c0.07,0.03,0.14,0.07,0.2,0.1c0.03,0.02,0.06,0.04,0.09,0.06c0.03,0.02,0.05,0.04,0.08,0.06c0.06,0.05,0.11,0.1,0.15,0.15
	c0.09,0.1,0.16,0.21,0.17,0.28C70.41,46.74,70.41,46.76,70.4,46.77z M71.87,43.56c-0.03-0.09-0.06-0.19-0.08-0.29
	c0.33-0.13,0.66-0.28,0.97-0.48c0.34-0.21,0.66-0.47,0.93-0.77c0.28-0.3,0.51-0.65,0.68-1.03c0.17-0.38,0.28-0.79,0.31-1.22
	c0.01-0.11,0.01-0.21,0-0.32c0-0.07-0.01-0.18-0.06-0.3c-0.04-0.12-0.14-0.27-0.27-0.36c-0.14-0.1-0.28-0.13-0.39-0.14
	c-0.11-0.01-0.2,0-0.28,0.02c-0.16,0.03-0.27,0.08-0.38,0.13c-0.21,0.1-0.39,0.22-0.55,0.34c-0.16,0.12-0.31,0.25-0.46,0.39
	c-0.29,0.27-0.54,0.57-0.77,0.89c-0.23,0.32-0.42,0.67-0.58,1.04c-0.13,0.32-0.23,0.67-0.28,1.04c-0.1,0.02-0.2,0.04-0.3,0.06
	c-0.65,0.12-1.33,0.15-2.01,0.12c-0.68-0.03-1.36-0.12-2.01-0.28c-0.16-0.04-0.32-0.09-0.47-0.14c-0.15-0.05-0.31-0.11-0.45-0.18
	c-0.21-0.1-0.41-0.21-0.59-0.33c0.49-0.08,0.99-0.17,1.48-0.28c0.18-0.04,0.36-0.08,0.54-0.13c0.09-0.02,0.18-0.05,0.27-0.08
	c0.09-0.03,0.18-0.05,0.27-0.08c0.36-0.12,0.71-0.25,1.06-0.41c0.35-0.16,0.69-0.35,1.02-0.61c0.16-0.13,0.33-0.27,0.48-0.47
	c0.07-0.1,0.15-0.21,0.2-0.36c0.03-0.07,0.05-0.16,0.06-0.25c0.01-0.09,0.01-0.2-0.01-0.3c-0.02-0.1-0.06-0.21-0.12-0.29
	c-0.05-0.09-0.12-0.16-0.18-0.22c-0.13-0.12-0.26-0.18-0.38-0.23c-0.24-0.1-0.46-0.13-0.67-0.15c-0.42-0.04-0.8-0.01-1.18,0.03
	c-0.38,0.04-0.74,0.11-1.11,0.19c-0.18,0.04-0.37,0.09-0.55,0.14c-0.18,0.05-0.37,0.11-0.55,0.17c-0.36,0.13-0.72,0.29-1.07,0.51
	c-0.17,0.11-0.34,0.23-0.5,0.38c-0.16,0.14-0.31,0.31-0.44,0.51c-0.13,0.19-0.23,0.42-0.28,0.67c-0.03,0.12-0.04,0.25-0.04,0.38
	c0,0.03,0,0.06,0,0.09c-0.41,0.05-0.83,0.1-1.24,0.15c-1.41,0.15-2.82,0.25-4.23,0.3c-1.41,0.05-2.83,0.06-4.24,0.01
	c-1.41-0.05-2.82-0.16-4.21-0.36c-1.39-0.2-2.77-0.47-4.1-0.88c-0.66-0.21-1.32-0.45-1.94-0.73c-0.63-0.29-1.23-0.62-1.78-1.01
	c-0.55-0.39-1.06-0.84-1.48-1.35c-0.1-0.13-0.21-0.26-0.3-0.39c-0.09-0.13-0.18-0.27-0.26-0.42c-0.1-0.18-0.19-0.36-0.28-0.55
	c0.04,0,0.08-0.01,0.12-0.01c1.49-0.12,2.92-0.44,4.32-0.82c1.03-0.28,2.05-0.6,3.06-0.93c0.24,0.18,0.49,0.36,0.74,0.54
	c0.59,0.42,1.18,0.82,1.79,1.22c1.21,0.78,2.47,1.51,3.79,2.11c0.66,0.3,1.34,0.57,2.04,0.8c0.7,0.23,1.42,0.4,2.15,0.52
	c0.73,0.11,1.48,0.16,2.22,0.12c0.74-0.04,1.49-0.15,2.2-0.35c0.18-0.05,0.36-0.1,0.53-0.16c0.17-0.06,0.35-0.11,0.52-0.17
	c0.34-0.12,0.68-0.25,1.02-0.38c0.67-0.26,1.33-0.54,1.99-0.81c1.31-0.54,2.62-1.06,3.97-1.3c0.17-0.03,0.34-0.05,0.51-0.08
	c0.17-0.02,0.34-0.04,0.51-0.05c0.17-0.02,0.34-0.02,0.51-0.02c0.17,0,0.34,0,0.51,0.01c0.17,0,0.34,0.02,0.51,0.03
	c0.08,0.01,0.17,0.02,0.25,0.03l0.13,0.01l0.13,0.02l0.25,0.04c0.08,0.02,0.16,0.03,0.24,0.05c0.16,0.04,0.32,0.08,0.47,0.14
	c0.15,0.05,0.3,0.11,0.45,0.19c0.14,0.07,0.28,0.15,0.42,0.24c0.27,0.18,0.51,0.39,0.71,0.63c0.2,0.24,0.37,0.51,0.49,0.8
	c0.12,0.29,0.2,0.6,0.22,0.91c0.06,0.63-0.08,1.27-0.36,1.86c-0.28,0.59-0.71,1.11-1.21,1.55c-0.25,0.22-0.52,0.43-0.8,0.61
	c-0.07,0.05-0.14,0.09-0.22,0.14l-0.11,0.07l-0.11,0.07l-0.46,0.26c-0.19,0.11-0.39,0.22-0.58,0.32
	C71.96,43.78,71.91,43.68,71.87,43.56z M71.91,42.04c0.12-0.35,0.3-0.69,0.52-1c0.18-0.26,0.39-0.51,0.62-0.73
	c0.11-0.11,0.23-0.21,0.36-0.3c0.06-0.04,0.12-0.08,0.17-0.12c-0.03,0.23-0.1,0.45-0.2,0.66c-0.24,0.54-0.67,1-1.2,1.34
	C72.1,41.94,72.01,41.99,71.91,42.04z M64.23,40.79c0-0.04,0-0.07,0.01-0.11c0.02-0.1,0.06-0.2,0.13-0.31
	c0.13-0.21,0.36-0.4,0.61-0.57c0.26-0.16,0.55-0.3,0.86-0.41c0.15-0.06,0.31-0.11,0.47-0.15c0.16-0.04,0.32-0.08,0.49-0.12
	c0.33-0.07,0.67-0.14,1-0.18c0.33-0.04,0.66-0.06,0.96-0.03c0.15,0.01,0.28,0.04,0.37,0.08c0.01,0,0.01,0.01,0.02,0.01
	c-0.01,0.02-0.02,0.03-0.04,0.05c-0.07,0.09-0.17,0.19-0.28,0.28c-0.23,0.18-0.52,0.35-0.82,0.49c-0.3,0.14-0.61,0.26-0.94,0.37
	c-0.08,0.03-0.16,0.05-0.24,0.08c-0.08,0.02-0.16,0.05-0.24,0.07c-0.16,0.04-0.33,0.08-0.5,0.12C65.49,40.59,64.86,40.7,64.23,40.79
	z M51.71,32.24c0.67-0.21,1.35-0.4,2.02-0.57c0.34-0.08,0.67-0.16,1.02-0.22c0.34-0.07,0.68-0.12,1.03-0.17
	c1.38-0.2,2.78-0.3,4.19-0.34c1.41-0.03,2.82,0,4.22,0.09c2.82,0.18,5.63,0.55,8.4,1.1c2.77,0.55,5.51,1.26,8.17,2.2
	c1.34,0.47,2.66,0.97,3.97,1.51c1.31,0.54,2.6,1.12,3.84,1.76c0.62,0.32,1.23,0.66,1.83,1.03c0.59,0.36,1.16,0.75,1.69,1.18
	c0.26,0.21,0.51,0.44,0.74,0.67c0.23,0.23,0.43,0.48,0.58,0.74c0.15,0.25,0.25,0.51,0.26,0.73c0.01,0.11-0.01,0.22-0.04,0.32
	c-0.02,0.05-0.03,0.09-0.06,0.14c-0.03,0.05-0.06,0.1-0.1,0.16c-0.08,0.11-0.18,0.22-0.29,0.33c-0.11,0.11-0.23,0.21-0.36,0.31
	c-0.25,0.2-0.53,0.39-0.82,0.56c-0.58,0.35-1.2,0.65-1.83,0.92c-1.28,0.54-2.62,0.94-3.98,1.23c-2.73,0.58-5.56,0.72-8.32,0.37
	c-0.69-0.09-1.38-0.21-2.06-0.36c-0.67-0.15-1.33-0.34-1.94-0.61c-0.3-0.13-0.59-0.28-0.86-0.46c-0.17-0.11-0.32-0.23-0.47-0.35
	c0.15-0.08,0.3-0.17,0.45-0.25l0.47-0.27l0.12-0.07l0.12-0.07c0.08-0.05,0.16-0.1,0.24-0.15c0.32-0.2,0.62-0.43,0.9-0.68
	c0.57-0.5,1.06-1.1,1.41-1.81c0.34-0.7,0.52-1.5,0.45-2.29c-0.03-0.4-0.13-0.79-0.28-1.16c-0.15-0.37-0.36-0.71-0.62-1.02
	c-0.26-0.31-0.56-0.57-0.89-0.79c-0.16-0.11-0.34-0.21-0.51-0.29c-0.18-0.09-0.36-0.16-0.54-0.23c-0.18-0.06-0.37-0.12-0.56-0.16
	c-0.09-0.02-0.19-0.04-0.28-0.06l-0.28-0.04l-0.14-0.02l-0.14-0.02c-0.09-0.01-0.18-0.02-0.28-0.03c-0.19-0.01-0.37-0.03-0.56-0.04
	c-0.19-0.01-0.37-0.01-0.56-0.01c-0.19,0.01-0.37,0.01-0.56,0.03c-0.19,0.01-0.37,0.03-0.56,0.05c-0.18,0.03-0.37,0.05-0.55,0.08
	c-0.73,0.13-1.44,0.33-2.13,0.56c-0.34,0.12-0.68,0.24-1.02,0.38c-0.34,0.13-0.67,0.27-1,0.4c-0.66,0.27-1.32,0.55-1.97,0.8
	c-0.33,0.13-0.66,0.25-0.99,0.36c-0.17,0.06-0.33,0.11-0.5,0.17c-0.16,0.05-0.33,0.1-0.49,0.14c-0.66,0.18-1.34,0.28-2.02,0.31
	c-0.68,0.03-1.37-0.01-2.04-0.12c-1.36-0.21-2.68-0.68-3.95-1.26c-1.27-0.58-2.49-1.29-3.67-2.06c-0.59-0.38-1.17-0.78-1.75-1.2
	c-0.07-0.05-0.14-0.1-0.2-0.15C49.02,33.13,50.36,32.66,51.71,32.24z M38.52,32.43c0.04-0.31,0.12-0.61,0.26-0.86
	c0.13-0.25,0.31-0.45,0.54-0.59c0.23-0.14,0.5-0.21,0.8-0.22c0.3-0.02,0.62,0.02,0.94,0.09c0.32,0.07,0.64,0.17,0.95,0.3
	c0.63,0.25,1.25,0.57,1.85,0.92c0.5,0.29,0.98,0.61,1.46,0.94c-0.7,0.22-1.41,0.43-2.11,0.62c-1.35,0.36-2.72,0.66-4.08,0.77
	c-0.15,0.01-0.3,0.02-0.45,0.03c-0.08-0.34-0.14-0.68-0.17-1.03C38.48,33.07,38.48,32.74,38.52,32.43z M98.94,30.97
	c-0.16,1.39-0.43,2.78-0.81,4.12c-0.19,0.67-0.41,1.34-0.68,1.98c-0.06,0.16-0.13,0.32-0.2,0.47c-0.06,0.14-0.13,0.28-0.2,0.4
	c-0.01,0-0.01-0.01-0.02-0.01c-0.06-0.04-0.12-0.09-0.18-0.14c-0.25-0.21-0.51-0.47-0.77-0.71c-0.26-0.25-0.53-0.49-0.79-0.73
	c-0.54-0.48-1.1-0.95-1.68-1.39c-1.15-0.88-2.38-1.66-3.64-2.37c-1.27-0.7-2.57-1.32-3.9-1.88c-2.66-1.11-5.42-1.97-8.21-2.65
	l-1.04-0.26c-0.35-0.08-0.7-0.16-1.05-0.25l-0.52-0.12l-0.52-0.12c-0.35-0.08-0.7-0.16-1.05-0.23c-1.4-0.3-2.81-0.57-4.23-0.81
	c-2.83-0.47-5.7-0.81-8.59-0.86c-0.18-0.01-0.36,0-0.54,0c-0.18,0-0.36,0-0.54,0c-0.36,0.01-0.72,0.01-1.09,0.03
	c-0.72,0.03-1.45,0.08-2.17,0.16c-0.72,0.08-1.44,0.19-2.16,0.32c-0.71,0.13-1.42,0.29-2.13,0.48c-0.7,0.19-1.39,0.4-2.08,0.64
	c-0.17,0.06-0.34,0.12-0.51,0.18l-0.5,0.18c-0.33,0.11-0.65,0.21-0.98,0.3c-0.66,0.17-1.33,0.28-1.99,0.29
	c-0.33,0.01-0.66-0.01-0.98-0.05c-0.32-0.05-0.63-0.12-0.93-0.23c-0.6-0.21-1.12-0.57-1.54-1.03c-0.21-0.23-0.39-0.49-0.54-0.77
	c-0.15-0.28-0.28-0.58-0.37-0.89c-0.1-0.31-0.17-0.63-0.22-0.96c-0.05-0.33-0.08-0.66-0.09-1c-0.02-0.67,0.04-1.35,0.15-2.03
	l0.04-0.25l0.05-0.25l0.05-0.25c0.02-0.08,0.04-0.16,0.06-0.24c0.08-0.32,0.19-0.64,0.31-0.96c0.24-0.64,0.54-1.27,0.85-1.9
	c0.32-0.63,0.65-1.25,1-1.87c0.34-0.62,0.69-1.25,1.02-1.9c0.17-0.32,0.33-0.65,0.48-1c0.15-0.34,0.29-0.7,0.39-1.1
	c0.05-0.2,0.09-0.42,0.08-0.67c0-0.12-0.01-0.26-0.05-0.4c-0.04-0.14-0.1-0.29-0.2-0.43c-0.05-0.07-0.11-0.13-0.17-0.18
	c-0.07-0.06-0.12-0.1-0.18-0.13c-0.11-0.07-0.22-0.13-0.33-0.17c-0.21-0.09-0.42-0.14-0.63-0.18c-0.41-0.08-0.8-0.09-1.19-0.08
	c-0.39,0.01-0.76,0.05-1.14,0.12c-0.74,0.12-1.46,0.32-2.16,0.55c-0.7,0.24-1.38,0.51-2.04,0.82c-0.66,0.31-1.31,0.65-1.94,1
	c-0.63,0.36-1.25,0.74-1.85,1.14c-0.6,0.4-1.2,0.82-1.78,1.25c-1.16,0.87-2.27,1.79-3.35,2.75c-0.54,0.48-1.06,0.97-1.58,1.47
	c-0.26,0.25-0.52,0.5-0.77,0.76c-0.25,0.25-0.51,0.51-0.76,0.78c-2,2.11-3.73,4.46-5.16,6.99c-0.71,1.26-1.35,2.57-1.89,3.93
	c-0.27,0.68-0.51,1.37-0.71,2.08c-0.2,0.71-0.37,1.43-0.45,2.2c-0.04,0.38-0.06,0.77-0.01,1.2c0.03,0.21,0.07,0.44,0.16,0.68
	c0.05,0.12,0.11,0.25,0.21,0.38c0.04,0.06,0.12,0.14,0.16,0.17c0.05,0.04,0.1,0.08,0.15,0.12c0.11,0.08,0.23,0.15,0.36,0.21
	c0.13,0.06,0.27,0.1,0.42,0.11c0.29,0.04,0.57-0.01,0.81-0.09c0.12-0.04,0.23-0.09,0.33-0.15c0.1-0.06,0.2-0.12,0.29-0.18
	c0.18-0.13,0.34-0.27,0.49-0.41c0.29-0.29,0.53-0.6,0.75-0.91c0.22-0.32,0.41-0.64,0.59-0.98c0.35-0.66,0.64-1.35,0.89-2.05
	c0.12-0.35,0.23-0.7,0.34-1.06c0.05-0.18,0.1-0.36,0.14-0.53l0.07-0.25c0.02-0.08,0.05-0.16,0.07-0.25
	c0.19-0.66,0.43-1.31,0.69-1.96c0.52-1.29,1.15-2.54,1.86-3.75c0.71-1.21,1.49-2.37,2.36-3.47c0.86-1.1,1.8-2.14,2.8-3.11
	c0.5-0.48,1.02-0.95,1.56-1.39c0.54-0.44,1.09-0.87,1.66-1.27c0.57-0.4,1.15-0.78,1.75-1.14c0.61-0.36,1.22-0.72,1.83-1.05
	c0.31-0.17,0.62-0.33,0.93-0.49c0.23-0.11,0.46-0.22,0.68-0.32c-0.13,0.18-0.28,0.36-0.43,0.54c-0.22,0.27-0.45,0.53-0.68,0.8
	l-0.71,0.8l-0.35,0.4l-0.36,0.4c-0.97,1.06-1.92,2.16-2.79,3.33c-0.87,1.16-1.68,2.39-2.35,3.7c-0.34,0.66-0.64,1.34-0.88,2.04
	c-0.25,0.71-0.44,1.44-0.55,2.19c-0.11,0.75-0.14,1.53-0.05,2.3c0.09,0.77,0.29,1.54,0.62,2.25c0.08,0.18,0.17,0.35,0.26,0.52
	c0.09,0.17,0.19,0.34,0.3,0.5c0.21,0.33,0.46,0.64,0.73,0.93c0.27,0.29,0.57,0.56,0.9,0.79c0.33,0.23,0.67,0.43,1.04,0.6
	c0.36,0.16,0.74,0.29,1.11,0.39c0.38,0.1,0.76,0.17,1.14,0.21c0.38,0.04,0.75,0.06,1.12,0.07c0.13,0.34,0.28,0.67,0.46,0.98
	c0.09,0.17,0.2,0.33,0.31,0.49c0.11,0.16,0.23,0.31,0.35,0.46c0.49,0.59,1.05,1.1,1.67,1.53c0.61,0.43,1.26,0.79,1.93,1.1
	c0.67,0.31,1.36,0.56,2.06,0.78c1.4,0.44,2.82,0.73,4.25,0.93c1.43,0.2,2.87,0.32,4.31,0.38c1.44,0.06,2.88,0.05,4.32,0
	c1.44-0.05,2.87-0.15,4.3-0.3c0.5-0.05,1-0.11,1.5-0.18c0.13,0.18,0.27,0.33,0.42,0.46c0.32,0.28,0.68,0.48,1.04,0.65
	c0.18,0.08,0.36,0.15,0.54,0.22c0.18,0.06,0.37,0.12,0.55,0.17c0.74,0.19,1.48,0.28,2.22,0.32c0.74,0.04,1.5,0.01,2.25-0.13
	c0.05-0.01,0.1-0.02,0.15-0.03c0.03,0.12,0.06,0.24,0.1,0.35c0.06,0.17,0.13,0.33,0.22,0.48c-0.11,0.06-0.21,0.11-0.32,0.17
	c-0.32,0.17-0.63,0.33-0.95,0.5c-0.05,0.03-0.1,0.06-0.16,0.08c-0.14-0.04-0.29-0.08-0.43-0.11c-0.75-0.16-1.51-0.17-2.25-0.1
	c-0.74,0.07-1.47,0.22-2.17,0.43c-0.35,0.11-0.7,0.23-1.04,0.37c-0.17,0.07-0.34,0.14-0.51,0.22c-0.17,0.08-0.34,0.16-0.5,0.26
	c-0.33,0.18-0.64,0.4-0.94,0.63c-0.29,0.24-0.57,0.49-0.82,0.76c-0.26,0.26-0.49,0.53-0.73,0.77c-0.24,0.24-0.48,0.45-0.75,0.59
	c-0.26,0.14-0.55,0.2-0.86,0.21c-0.31,0.01-0.64-0.05-0.96-0.13l-0.01,0c-0.07-0.02-0.14-0.01-0.21,0.01
	c-0.19,0.07-0.3,0.28-0.23,0.47l0.01,0.02l0.01,0.02l0.01,0.03l0.02,0.05c0.01,0.03,0.03,0.06,0.05,0.09
	c0.03,0.06,0.07,0.12,0.1,0.18c0.07,0.11,0.15,0.22,0.24,0.31c0.18,0.19,0.39,0.35,0.61,0.48c0.45,0.26,0.94,0.38,1.42,0.42
	c0.48,0.04,0.96,0.01,1.42-0.07c0.22-0.03,0.43-0.08,0.64-0.13c-0.03,0.05-0.05,0.1-0.08,0.15c-0.05,0.11-0.1,0.22-0.14,0.34
	c-0.02,0.06-0.04,0.12-0.06,0.18c-0.01,0.03-0.02,0.06-0.03,0.09c-0.01,0.04-0.02,0.07-0.02,0.11c-0.03,0.15-0.02,0.33,0.03,0.49
	c0.05,0.16,0.15,0.3,0.26,0.41c0.11,0.11,0.22,0.19,0.33,0.25c0.11,0.07,0.23,0.12,0.34,0.17c0.23,0.09,0.45,0.16,0.67,0.22
	c0.22,0.06,0.45,0.11,0.67,0.16c0.44,0.09,0.89,0.16,1.33,0.23c0.44,0.07,0.88,0.13,1.32,0.19c0.88,0.12,1.76,0.23,2.63,0.36
	l1.31,0.21c0.22,0.03,0.45,0.07,0.68,0.09c0.23,0.02,0.47,0.04,0.72,0.02c0.13-0.01,0.26-0.03,0.4-0.07
	c0.14-0.04,0.29-0.1,0.43-0.22c0.07-0.06,0.13-0.12,0.18-0.2c0.05-0.07,0.08-0.15,0.11-0.23c0.05-0.16,0.06-0.31,0.06-0.44
	c-0.01-0.27-0.06-0.51-0.13-0.75c-0.03-0.11-0.07-0.23-0.11-0.34c-0.02-0.06-0.04-0.11-0.06-0.16c-0.02-0.06-0.05-0.12-0.08-0.17
	c-0.05-0.12-0.12-0.23-0.18-0.33c-0.07-0.11-0.14-0.21-0.22-0.3c-0.16-0.19-0.34-0.36-0.53-0.51c-0.38-0.3-0.81-0.53-1.24-0.7
	c-0.43-0.18-0.88-0.31-1.33-0.4c-0.45-0.1-0.9-0.16-1.36-0.21c-0.91-0.08-1.82-0.08-2.73,0.01c-0.38,0.03-0.76,0.08-1.13,0.15
	c0.57-0.37,1.23-0.62,1.91-0.74c0.83-0.15,1.69-0.13,2.54,0.01c0.86,0.14,1.71,0.33,2.5,0.64c0.39,0.16,0.78,0.34,1.11,0.58
	c0.17,0.12,0.32,0.25,0.45,0.39c0.06,0.07,0.12,0.15,0.17,0.22c0.02,0.04,0.05,0.08,0.06,0.11c0.01,0.02,0.02,0.04,0.02,0.05
	c0,0.01,0.01,0.02,0.01,0.02l0,0.01c0,0,0,0,0-0.01l0.62,0.03c0.01-0.03,0.01-0.05,0.02-0.07l0.01-0.06
	c0.01-0.04,0.02-0.08,0.03-0.13c0.02-0.08,0.03-0.17,0.04-0.25c0.02-0.17,0.03-0.34,0.04-0.51c0.01-0.34-0.02-0.68-0.09-1.02
	c-0.04-0.18-0.09-0.36-0.15-0.53c0.15,0.14,0.28,0.3,0.4,0.46c0.4,0.55,0.67,1.2,0.82,1.88c0.15,0.68,0.19,1.39,0.16,2.1
	c-0.03,0.71-0.14,1.41-0.34,2.09c-0.2,0.67-0.5,1.31-0.92,1.86c-0.17,0.22-0.37,0.43-0.58,0.6c-0.08-0.06-0.16-0.12-0.24-0.18
	c-0.16-0.11-0.33-0.21-0.51-0.3c-0.18-0.09-0.37-0.16-0.55-0.21c-0.37-0.12-0.75-0.19-1.13-0.23c-0.19-0.02-0.38-0.03-0.58-0.03
	c-0.19,0-0.39,0.01-0.59,0.04c-0.1,0.02-0.2,0.04-0.31,0.07c-0.11,0.04-0.22,0.08-0.34,0.17c-0.06,0.05-0.13,0.12-0.17,0.22
	c-0.02,0.05-0.03,0.11-0.04,0.16c0,0.06,0,0.11,0.01,0.15c0.02,0.09,0.06,0.16,0.1,0.22c0.04,0.06,0.08,0.1,0.12,0.14
	c0.08,0.08,0.17,0.15,0.25,0.21c0.08,0.06,0.17,0.11,0.25,0.16c0.17,0.1,0.34,0.18,0.51,0.26l0.13,0.06l0.14,0.06
	c0.09,0.04,0.19,0.07,0.28,0.1c0.19,0.06,0.38,0.1,0.58,0.13c0.4,0.05,0.81,0.03,1.2-0.08c0.3-0.08,0.58-0.21,0.84-0.37
	c0.08,0.07,0.15,0.15,0.22,0.23c0.45,0.52,0.77,1.15,0.97,1.82c0.2,0.67,0.28,1.38,0.26,2.08c-0.01,0.71-0.12,1.42-0.28,2.11
	c-0.04,0.17-0.09,0.35-0.14,0.52c-0.02,0.09-0.05,0.17-0.08,0.26c-0.03,0.09-0.05,0.17-0.08,0.25c-0.11,0.33-0.27,0.63-0.46,0.91
	c-0.38,0.57-0.93,1.01-1.55,1.31c-0.62,0.31-1.31,0.49-2.02,0.6c-0.7,0.11-1.42,0.14-2.14,0.13c-0.72-0.01-1.44-0.07-2.16-0.15
	c-0.72-0.08-1.44-0.2-2.15-0.33c-0.71-0.13-1.42-0.29-2.13-0.45c-2.84-0.65-5.66-1.41-8.45-2.27c-1.39-0.43-2.78-0.89-4.15-1.38
	c-1.37-0.49-2.73-1.02-4.06-1.6c-1.33-0.59-2.64-1.22-3.88-1.97c-0.62-0.38-1.21-0.79-1.76-1.25c-0.27-0.23-0.53-0.48-0.76-0.74
	c-0.23-0.27-0.43-0.55-0.57-0.86l0,0c-0.03-0.07-0.1-0.12-0.18-0.13c-0.12-0.01-0.24,0.07-0.25,0.2c0,0.02,0,0.02,0,0.03l0,0.02
	c0,0.01,0,0.03,0,0.04c0,0.03,0,0.05,0,0.07c0,0.05,0.01,0.1,0.02,0.14c0.01,0.09,0.03,0.18,0.06,0.27c0.05,0.17,0.11,0.34,0.19,0.5
	c0.15,0.32,0.33,0.61,0.54,0.88c0.41,0.55,0.89,1.02,1.4,1.45c0.25,0.22,0.52,0.42,0.79,0.62c0.14,0.1,0.27,0.2,0.41,0.29l0.21,0.14
	l0.21,0.14c0.56,0.37,1.13,0.71,1.71,1.03c0.58,0.32,1.17,0.62,1.77,0.9c0.6,0.29,1.2,0.56,1.81,0.81c1.22,0.52,2.45,0.99,3.69,1.43
	c2.49,0.88,5.02,1.63,7.57,2.31c1.27,0.34,2.55,0.66,3.83,0.97c1,0.24,1.99,0.46,2.99,0.68c-0.24,0.08-0.47,0.19-0.69,0.31
	c-0.48,0.27-0.91,0.65-1.25,1.08c-0.35,0.43-0.62,0.91-0.82,1.41c-0.21,0.5-0.36,1.03-0.46,1.55c-0.11,0.53-0.17,1.06-0.21,1.6
	c-0.04,0.54-0.04,1.07-0.04,1.6c0.01,1.06,0.05,2.13,0.09,3.18c0.04,1.06,0.07,2.12,0.06,3.17c-0.01,1.06-0.05,2.11-0.17,3.16
	c-0.12,1.05-0.3,2.08-0.6,3.09c-0.3,1-0.71,1.98-1.26,2.86c-0.55,0.88-1.25,1.68-2.07,2.33c-0.81,0.66-1.74,1.16-2.7,1.57
	c-0.97,0.41-1.97,0.73-2.99,1c-0.51,0.13-1.03,0.24-1.54,0.34c-0.52,0.1-1.04,0.19-1.56,0.26c-2.09,0.28-4.21,0.35-6.32,0.21
	c-1.05-0.07-2.1-0.2-3.14-0.37l-0.39-0.07l-0.19-0.04l-0.19-0.04l-0.39-0.08l-0.39-0.09l-0.19-0.04l-0.19-0.05l-0.38-0.09l-0.38-0.1
	c-0.13-0.03-0.25-0.07-0.38-0.11c-1.01-0.29-2.01-0.63-2.99-1.03c-0.12-0.05-0.24-0.1-0.37-0.15l-0.36-0.16l-0.18-0.08l-0.18-0.08
	l-0.36-0.17c-0.47-0.23-0.94-0.47-1.4-0.73c-1.85-1.02-3.56-2.28-5.1-3.72c-0.06-0.06-0.13-0.12-0.19-0.18
	c-0.72-1.33-1.34-2.71-1.86-4.13c-0.36-0.99-0.68-2-0.94-3.03c-0.26-1.02-0.47-2.06-0.59-3.11c-0.03-0.26-0.05-0.52-0.06-0.79
	c0-0.11-0.01-0.23-0.01-0.34c0.31-0.2,0.61-0.42,0.9-0.65c0.51-0.41,0.97-0.88,1.38-1.39c0.41-0.51,0.76-1.07,1.05-1.65
	c0.3-0.58,0.54-1.19,0.75-1.8c0.21-0.62,0.39-1.25,0.54-1.88c0.08-0.32,0.15-0.63,0.22-0.95c0.03-0.16,0.07-0.32,0.1-0.48
	c0.03-0.16,0.06-0.32,0.09-0.48c0.1-0.65,0.11-1.3,0.09-1.95c-0.04-0.95-0.17-1.9-0.34-2.84c0.23-0.07,0.46-0.15,0.68-0.24
	c0.61-0.25,1.18-0.59,1.72-0.98c0.53-0.39,1.03-0.82,1.49-1.29c0.46-0.47,0.89-0.96,1.3-1.47c0.81-1.03,1.53-2.13,2.18-3.26
	c0.65-1.13,1.23-2.3,1.77-3.5c0.13-0.3,0.26-0.6,0.39-0.9c0.13-0.3,0.24-0.61,0.35-0.92c0.21-0.62,0.39-1.25,0.53-1.89
	c0.27-1.28,0.4-2.59,0.39-3.9c-0.01-1.31-0.16-2.62-0.45-3.89c-0.29-1.28-0.72-2.52-1.32-3.69c-0.3-0.58-0.64-1.14-1.03-1.67
	c-0.39-0.53-0.83-1.02-1.31-1.47c-0.48-0.45-1-0.86-1.58-1.18c-0.57-0.33-1.19-0.57-1.85-0.69c-0.65-0.12-1.32-0.12-1.97,0.01
	c-0.65,0.13-1.27,0.38-1.84,0.72c-0.57,0.34-1.08,0.76-1.52,1.25c-0.45,0.48-0.83,1.03-1.13,1.61c-0.31,0.58-0.54,1.2-0.68,1.85
	c-0.15,0.64-0.21,1.3-0.2,1.96c0.02,1.31,0.3,2.61,0.71,3.85c0.12,0.37,0.26,0.73,0.4,1.09c-0.08,0.75-0.12,1.51-0.11,2.27
	c0.01,1.31,0.13,2.61,0.32,3.9c0.19,1.29,0.44,2.57,0.73,3.84c0.28,1.27,0.6,2.54,0.91,3.8c0.31,1.26,0.62,2.53,0.89,3.81
	c0.06,0.27,0.11,0.54,0.16,0.82c-0.07,0.02-0.15,0.04-0.22,0.06c-0.31,0.08-0.63,0.13-0.95,0.15c-0.64,0.05-1.28-0.02-1.9-0.2
	c-0.62-0.17-1.21-0.44-1.76-0.77c-1.11-0.66-2.12-1.48-3.02-2.41c-0.45-0.47-0.87-0.96-1.26-1.47c-0.2-0.26-0.39-0.52-0.57-0.78
	c-0.18-0.27-0.36-0.54-0.53-0.81c-0.69-1.1-1.27-2.26-1.76-3.46c-0.49-1.2-0.89-2.44-1.2-3.7c-0.31-1.26-0.53-2.54-0.64-3.83
	c-0.12-1.29-0.13-2.59-0.01-3.88c0.06-0.65,0.13-1.29,0.23-1.93c0.1-0.64,0.23-1.27,0.39-1.9c0.17-0.62,0.37-1.24,0.64-1.82
	c0.14-0.29,0.29-0.57,0.47-0.83c0.18-0.26,0.38-0.5,0.61-0.71c0.17-0.15,0.35-0.27,0.55-0.36c-0.08,0.64-0.12,1.28-0.13,1.93
	c-0.02,1.32,0.12,2.64,0.48,3.92c0.18,0.64,0.42,1.26,0.74,1.85c0.16,0.29,0.34,0.58,0.55,0.84c0.21,0.27,0.44,0.51,0.71,0.73
	c0.27,0.21,0.58,0.39,0.94,0.46c0.18,0.04,0.36,0.04,0.55,0.02c0.18-0.03,0.36-0.1,0.51-0.19c0.16-0.09,0.29-0.21,0.41-0.35
	c0.12-0.13,0.22-0.27,0.3-0.42c0.18-0.3,0.3-0.62,0.38-0.95c0.16-0.66,0.15-1.34,0.07-2c-0.09-0.66-0.25-1.31-0.48-1.93
	c-0.23-0.62-0.51-1.22-0.85-1.79c-0.34-0.57-0.74-1.1-1.23-1.57c-0.48-0.46-1.08-0.85-1.76-0.98c-0.25-0.05-0.51-0.05-0.77-0.01
	c0.07-0.49,0.17-0.98,0.28-1.46c0.07-0.31,0.15-0.63,0.24-0.94c0.04-0.16,0.09-0.31,0.14-0.47c0.05-0.16,0.09-0.31,0.14-0.47
	c0.19-0.62,0.39-1.24,0.61-1.85c0.43-1.22,0.92-2.43,1.47-3.6c1.09-2.35,2.4-4.61,3.93-6.7c1.53-2.09,3.29-4.02,5.23-5.73
	c1.95-1.71,4.08-3.2,6.36-4.43c2.28-1.24,4.69-2.22,7.17-2.95c0.1-0.03,0.17-0.12,0.16-0.23c-0.01-0.12-0.12-0.22-0.24-0.21
	c-0.2,0.01-0.38,0.03-0.57,0.05c-0.19,0.02-0.38,0.05-0.57,0.07c-0.38,0.05-0.75,0.12-1.12,0.19c-0.74,0.14-1.48,0.31-2.21,0.51
	c-1.46,0.39-2.9,0.89-4.29,1.49c-2.78,1.2-5.39,2.8-7.69,4.79c-2.3,1.98-4.26,4.34-5.82,6.94c-0.78,1.3-1.47,2.66-2.05,4.05
	c-0.3,0.71-0.57,1.42-0.82,2.14c0.09-0.66,0.21-1.31,0.36-1.96c0.16-0.69,0.35-1.36,0.57-2.03c0.22-0.67,0.48-1.33,0.76-1.98
	c0.56-1.3,1.23-2.54,1.99-3.73c0.38-0.59,0.79-1.17,1.21-1.74c0.42-0.56,0.87-1.11,1.34-1.64c0.12-0.13,0.23-0.27,0.35-0.4
	l0.36-0.39c0.25-0.25,0.49-0.51,0.74-0.76c0.25-0.25,0.51-0.49,0.76-0.74c0.13-0.12,0.26-0.24,0.39-0.36l0.2-0.18l0.2-0.17l0.4-0.35
	l0.41-0.34c0.13-0.11,0.27-0.22,0.41-0.33L26,10.53l0.42-0.32l0.21-0.16l0.21-0.16l0.43-0.31l0.44-0.3c0.29-0.21,0.59-0.4,0.88-0.59
	c0.15-0.1,0.3-0.19,0.45-0.29l0.45-0.28c0.6-0.37,1.21-0.73,1.83-1.07c1.24-0.69,2.51-1.33,3.8-1.93c1.29-0.6,2.59-1.17,3.91-1.67
	c0.66-0.25,1.33-0.48,2-0.7c0.67-0.21,1.35-0.4,2.04-0.55c0.69-0.15,1.38-0.27,2.07-0.32c0.35-0.03,0.69-0.04,1.03-0.02
	c0.34,0.01,0.68,0.05,1,0.13c0.32,0.07,0.63,0.19,0.89,0.35c0.26,0.16,0.48,0.38,0.61,0.63C48.69,2.98,48.7,3,48.71,3.02
	c-0.51,0.26-1.01,0.55-1.49,0.87c-0.61,0.41-1.19,0.87-1.7,1.42c-0.13,0.14-0.25,0.28-0.37,0.43l-0.09,0.11l-0.08,0.11
	c-0.06,0.08-0.11,0.15-0.16,0.23c-0.1,0.15-0.2,0.31-0.3,0.48c-0.09,0.17-0.18,0.34-0.26,0.53c-0.04,0.1-0.07,0.2-0.09,0.32
	c-0.02,0.12-0.03,0.25,0.01,0.41c0.02,0.08,0.06,0.17,0.12,0.25c0.06,0.08,0.14,0.14,0.21,0.18c0.16,0.08,0.29,0.09,0.42,0.09
	c0.24,0,0.44-0.05,0.63-0.11c0.19-0.06,0.37-0.13,0.54-0.21c0.34-0.16,0.67-0.35,0.98-0.56c0.31-0.21,0.6-0.44,0.88-0.71
	c0.07-0.07,0.14-0.13,0.2-0.21c0.07-0.07,0.13-0.14,0.19-0.21C48.47,6.3,48.58,6.15,48.69,6c0.22-0.31,0.41-0.64,0.55-1
	c0.15-0.36,0.25-0.74,0.27-1.15c0.01-0.14,0-0.28-0.01-0.43c1.24-0.58,2.55-1.04,3.89-1.4c1.36-0.37,2.75-0.65,4.15-0.85
	c0.7-0.1,1.4-0.17,2.1-0.23c0.71-0.05,1.42-0.1,2.12-0.13c2.83-0.13,5.68-0.08,8.49,0.21c2.82,0.29,5.61,0.81,8.31,1.65
	c2.7,0.83,5.3,1.98,7.69,3.47c1.2,0.74,2.34,1.57,3.42,2.47c1.08,0.91,2.09,1.89,3.02,2.94c0.47,0.53,0.92,1.07,1.34,1.63
	c0.43,0.56,0.83,1.13,1.21,1.72c0.76,1.18,1.42,2.42,1.97,3.71c1.1,2.58,1.72,5.35,1.86,8.15C99.15,28.17,99.11,29.58,98.94,30.97z
	 M72.1,57.79c-0.16,0.09-0.33,0.15-0.51,0.2c-0.31,0.09-0.65,0.11-0.97,0.07c-0.16-0.02-0.33-0.06-0.49-0.11
	c-0.08-0.02-0.16-0.05-0.24-0.08l-0.12-0.05l-0.12-0.05c-0.16-0.07-0.32-0.15-0.47-0.23c-0.15-0.08-0.29-0.18-0.38-0.27
	c-0.02-0.02-0.04-0.04-0.05-0.05c0.03-0.02,0.07-0.04,0.12-0.05c0.07-0.02,0.14-0.04,0.22-0.05c0.32-0.05,0.67-0.04,1.02,0
	c0.35,0.04,0.69,0.11,1.02,0.21c0.17,0.05,0.32,0.11,0.47,0.18c0.15,0.07,0.3,0.16,0.44,0.25C72.06,57.76,72.08,57.78,72.1,57.79z
	 M22.71,48.15c0.27,0.6,0.56,1.18,0.88,1.75c0.33,0.57,0.69,1.12,1.1,1.62c0.21,0.26,0.42,0.5,0.66,0.73
	c0.12,0.11,0.24,0.23,0.37,0.33c0.13,0.11,0.26,0.21,0.39,0.3c0.27,0.19,0.56,0.34,0.88,0.46c0.31,0.11,0.64,0.17,0.98,0.17
	c0.33-0.01,0.66-0.09,0.97-0.22c0.3-0.14,0.58-0.33,0.83-0.54c0.12-0.11,0.24-0.23,0.35-0.35c0.11-0.12,0.21-0.25,0.31-0.38
	c0.2-0.26,0.38-0.54,0.54-0.83c0.32-0.58,0.54-1.2,0.69-1.84c0.14-0.64,0.2-1.3,0.19-1.95c-0.01-0.66-0.09-1.31-0.23-1.95
	c-0.14-0.64-0.34-1.27-0.6-1.87c-0.26-0.6-0.57-1.18-0.94-1.72c-0.37-0.54-0.81-1.04-1.33-1.44c-0.26-0.2-0.54-0.37-0.85-0.5
	c-0.3-0.13-0.63-0.21-0.97-0.21c-0.17,0-0.33,0.02-0.49,0.06c-0.16,0.04-0.32,0.1-0.47,0.17c-0.3,0.15-0.56,0.36-0.79,0.59
	c-0.11,0.12-0.22,0.25-0.32,0.38l-0.14,0.2l-0.14,0.2c-0.18,0.27-0.36,0.55-0.52,0.83c-0.65,1.14-1.11,2.38-1.38,3.65
	c-0.1,0.45-0.17,0.9-0.23,1.36c-0.11-0.29-0.21-0.57-0.31-0.86c-0.41-1.23-0.68-2.51-0.69-3.81c-0.01-0.65,0.06-1.29,0.2-1.92
	c0.14-0.63,0.37-1.24,0.67-1.81c0.3-0.57,0.68-1.1,1.12-1.58c0.44-0.47,0.94-0.89,1.49-1.22c0.55-0.33,1.16-0.57,1.79-0.69
	c0.63-0.12,1.28-0.12,1.91,0c0.63,0.12,1.24,0.36,1.8,0.68c0.56,0.32,1.07,0.72,1.54,1.16c0.47,0.44,0.9,0.93,1.29,1.45
	c0.38,0.52,0.72,1.08,1.02,1.65c0.59,1.15,1.01,2.39,1.3,3.65c0.28,1.26,0.43,2.56,0.44,3.86c0.01,1.3-0.12,2.59-0.39,3.86
	c-0.14,0.63-0.31,1.26-0.52,1.87c-0.11,0.31-0.22,0.61-0.35,0.91c-0.13,0.3-0.26,0.6-0.39,0.89c-0.53,1.19-1.11,2.35-1.76,3.48
	c-0.65,1.13-1.36,2.22-2.17,3.23c-0.4,0.51-0.83,1-1.29,1.45c-0.46,0.46-0.94,0.89-1.47,1.26c-0.52,0.38-1.08,0.7-1.67,0.95
	c-0.21,0.09-0.42,0.16-0.64,0.22c-0.05-0.27-0.1-0.54-0.16-0.81c-0.26-1.28-0.57-2.54-0.88-3.81c-0.31-1.27-0.62-2.53-0.91-3.8
	c-0.28-1.27-0.53-2.55-0.72-3.84c-0.19-1.29-0.31-2.59-0.32-3.89c0-0.71,0.03-1.41,0.1-2.11C22.54,47.77,22.62,47.96,22.71,48.15z
	 M22.49,47.31c0.06-0.5,0.14-1,0.25-1.5c0.28-1.27,0.73-2.5,1.38-3.63c0.16-0.28,0.33-0.56,0.52-0.82c0.19-0.27,0.37-0.53,0.59-0.76
	c0.22-0.23,0.48-0.43,0.76-0.57c0.14-0.07,0.29-0.12,0.45-0.16c0.16-0.04,0.31-0.05,0.47-0.05c0.32,0,0.64,0.08,0.93,0.2
	c0.3,0.12,0.57,0.29,0.83,0.49c0.51,0.4,0.94,0.89,1.31,1.42c0.37,0.53,0.68,1.11,0.93,1.7c0.25,0.6,0.45,1.22,0.59,1.85
	c0.14,0.63,0.22,1.28,0.23,1.93c0.01,0.65-0.05,1.3-0.19,1.93c-0.14,0.63-0.37,1.24-0.68,1.81c-0.32,0.56-0.7,1.1-1.18,1.52
	c-0.24,0.21-0.51,0.39-0.8,0.53c-0.29,0.13-0.61,0.2-0.92,0.21c-0.32,0.01-0.64-0.05-0.94-0.16c-0.3-0.11-0.59-0.26-0.85-0.45
	c-0.13-0.09-0.26-0.19-0.38-0.29c-0.12-0.1-0.24-0.21-0.36-0.32c-0.23-0.23-0.45-0.47-0.65-0.72c-0.41-0.5-0.76-1.05-1.09-1.61
	c-0.32-0.56-0.61-1.15-0.87-1.74C22.7,47.84,22.59,47.58,22.49,47.31z"/>
</svg>
